<svg xmlns="http://www.w3.org/2000/svg" viewBox="0 0 120.00 63.00" width="120" height="63">
  <polygon points="60.00,3.00 72.00,9.00 60.00,15.00 48.00,9.00" fill="#58554F" stroke="rgba(0,0,0,0.12)" stroke-width="0.4" stroke-linejoin="round"/>
  <polygon points="72.00,9.00 84.00,15.00 72.00,21.00 60.00,15.00" fill="#58554F" stroke="rgba(0,0,0,0.12)" stroke-width="0.4" stroke-linejoin="round"/>
  <polygon points="48.00,9.00 60.00,15.00 48.00,21.00 36.00,15.00" fill="#58554F" stroke="rgba(0,0,0,0.12)" stroke-width="0.4" stroke-linejoin="round"/>
  <polygon points="84.00,15.00 96.00,21.00 84.00,27.00 72.00,21.00" fill="#58554F" stroke="rgba(0,0,0,0.12)" stroke-width="0.4" stroke-linejoin="round"/>
  <polygon points="60.00,6.00 72.00,12.00 60.00,18.00 48.00,12.00" fill="#E07020" stroke="rgba(0,0,0,0.12)" stroke-width="0.4" stroke-linejoin="round"/>
  <polygon points="36.00,15.00 48.00,21.00 36.00,27.00 24.00,21.00" fill="#58554F" stroke="rgba(0,0,0,0.12)" stroke-width="0.4" stroke-linejoin="round"/>
  <polygon points="96.00,21.00 108.00,27.00 96.00,33.00 84.00,27.00" fill="#58554F" stroke="rgba(0,0,0,0.12)" stroke-width="0.4" stroke-linejoin="round"/>
  <polygon points="84.00,9.00 72.00,15.00 72.00,24.00 84.00,18.00" fill="#8C3A0C" stroke="rgba(0,0,0,0.12)" stroke-width="0.4" stroke-linejoin="round"/>
  <polygon points="72.00,3.00 84.00,9.00 72.00,15.00 60.00,9.00" fill="#F5A623" stroke="rgba(0,0,0,0.12)" stroke-width="0.4" stroke-linejoin="round"/>
  <polygon points="36.00,9.00 48.00,15.00 48.00,24.00 36.00,18.00" fill="#B85218" stroke="rgba(0,0,0,0.12)" stroke-width="0.4" stroke-linejoin="round"/>
  <polygon points="48.00,3.00 60.00,9.00 48.00,15.00 36.00,9.00" fill="#F5A623" stroke="rgba(0,0,0,0.12)" stroke-width="0.4" stroke-linejoin="round"/>
  <polygon points="24.00,21.00 36.00,27.00 24.00,33.00 12.00,27.00" fill="#58554F" stroke="rgba(0,0,0,0.12)" stroke-width="0.4" stroke-linejoin="round"/>
  <polygon points="108.00,27.00 120.00,33.00 108.00,39.00 96.00,33.00" fill="#58554F" stroke="rgba(0,0,0,0.12)" stroke-width="0.4" stroke-linejoin="round"/>
  <polygon points="96.00,24.00 84.00,30.00 84.00,39.00 96.00,33.00" fill="#2C2A26" stroke="rgba(0,0,0,0.12)" stroke-width="0.4" stroke-linejoin="round"/>
  <polygon points="84.00,18.00 96.00,24.00 84.00,30.00 72.00,24.00" fill="#E07020" stroke="rgba(0,0,0,0.12)" stroke-width="0.4" stroke-linejoin="round"/>
  <polygon points="48.00,6.00 60.00,12.00 60.00,21.00 48.00,15.00" fill="#CC7A10" stroke="rgba(0,0,0,0.12)" stroke-width="0.4" stroke-linejoin="round"/>
  <polygon points="72.00,6.00 60.00,12.00 60.00,21.00 72.00,15.00" fill="#A85C0A" stroke="rgba(0,0,0,0.12)" stroke-width="0.4" stroke-linejoin="round"/>
  <polygon points="60.00,0.00 72.00,6.00 60.00,12.00 48.00,6.00" fill="#FAC75A" stroke="rgba(0,0,0,0.12)" stroke-width="0.4" stroke-linejoin="round"/>
  <polygon points="24.00,24.00 36.00,30.00 36.00,39.00 24.00,33.00" fill="#3A3732" stroke="rgba(0,0,0,0.12)" stroke-width="0.4" stroke-linejoin="round"/>
  <polygon points="36.00,18.00 48.00,24.00 36.00,30.00 24.00,24.00" fill="#E07020" stroke="rgba(0,0,0,0.12)" stroke-width="0.4" stroke-linejoin="round"/>
  <polygon points="12.00,27.00 24.00,33.00 12.00,39.00 0.00,33.00" fill="#58554F" stroke="rgba(0,0,0,0.12)" stroke-width="0.4" stroke-linejoin="round"/>
  <polygon points="96.00,33.00 108.00,39.00 96.00,45.00 84.00,39.00" fill="#58554F" stroke="rgba(0,0,0,0.12)" stroke-width="0.4" stroke-linejoin="round"/>
  <polygon points="60.00,21.00 72.00,27.00 72.00,36.00 60.00,30.00" fill="#B85218" stroke="rgba(0,0,0,0.12)" stroke-width="0.4" stroke-linejoin="round"/>
  <polygon points="84.00,21.00 72.00,27.00 72.00,45.00 84.00,39.00" fill="#8C3A0C" stroke="rgba(0,0,0,0.12)" stroke-width="0.4" stroke-linejoin="round"/>
  <polygon points="72.00,15.00 84.00,21.00 72.00,27.00 60.00,21.00" fill="#F5A623" stroke="rgba(0,0,0,0.12)" stroke-width="0.4" stroke-linejoin="round"/>
  <polygon points="36.00,21.00 48.00,27.00 48.00,45.00 36.00,39.00" fill="#B85218" stroke="rgba(0,0,0,0.12)" stroke-width="0.4" stroke-linejoin="round"/>
  <polygon points="60.00,21.00 48.00,27.00 48.00,36.00 60.00,30.00" fill="#8C3A0C" stroke="rgba(0,0,0,0.12)" stroke-width="0.4" stroke-linejoin="round"/>
  <polygon points="48.00,15.00 60.00,21.00 48.00,27.00 36.00,21.00" fill="#F5A623" stroke="rgba(0,0,0,0.12)" stroke-width="0.4" stroke-linejoin="round"/>
  <polygon points="24.00,33.00 36.00,39.00 24.00,45.00 12.00,39.00" fill="#58554F" stroke="rgba(0,0,0,0.12)" stroke-width="0.4" stroke-linejoin="round"/>
  <polygon points="84.00,39.00 96.00,45.00 84.00,51.00 72.00,45.00" fill="#58554F" stroke="rgba(0,0,0,0.12)" stroke-width="0.4" stroke-linejoin="round"/>
  <polygon points="48.00,36.00 60.00,42.00 60.00,51.00 48.00,45.00" fill="#3A3732" stroke="rgba(0,0,0,0.12)" stroke-width="0.4" stroke-linejoin="round"/>
  <polygon points="72.00,36.00 60.00,42.00 60.00,51.00 72.00,45.00" fill="#2C2A26" stroke="rgba(0,0,0,0.12)" stroke-width="0.4" stroke-linejoin="round"/>
  <polygon points="60.00,30.00 72.00,36.00 60.00,42.00 48.00,36.00" fill="#E07020" stroke="rgba(0,0,0,0.12)" stroke-width="0.4" stroke-linejoin="round"/>
  <polygon points="36.00,39.00 48.00,45.00 36.00,51.00 24.00,45.00" fill="#58554F" stroke="rgba(0,0,0,0.12)" stroke-width="0.4" stroke-linejoin="round"/>
  <polygon points="72.00,45.00 84.00,51.00 72.00,57.00 60.00,51.00" fill="#58554F" stroke="rgba(0,0,0,0.12)" stroke-width="0.4" stroke-linejoin="round"/>
  <polygon points="48.00,45.00 60.00,51.00 48.00,57.00 36.00,51.00" fill="#58554F" stroke="rgba(0,0,0,0.12)" stroke-width="0.4" stroke-linejoin="round"/>
  <polygon points="60.00,51.00 72.00,57.00 60.00,63.00 48.00,57.00" fill="#58554F" stroke="rgba(0,0,0,0.12)" stroke-width="0.4" stroke-linejoin="round"/>
</svg>