<?xml version="1.0" encoding="utf-8" standalone="no"?>
<!DOCTYPE svg PUBLIC "-//W3C//DTD SVG 1.1//EN"
  "http://www.w3.org/Graphics/SVG/1.1/DTD/svg11.dtd">
<svg xmlns:xlink="http://www.w3.org/1999/xlink" width="857.6075pt" height="325.196328pt" viewBox="0 0 857.6075 325.196328" xmlns="http://www.w3.org/2000/svg" version="1.1">
 <metadata>
  <rdf:RDF xmlns:dc="http://purl.org/dc/elements/1.1/" xmlns:cc="http://creativecommons.org/ns#" xmlns:rdf="http://www.w3.org/1999/02/22-rdf-syntax-ns#">
   <cc:Work>
    <dc:type rdf:resource="http://purl.org/dc/dcmitype/StillImage"/>
    <dc:date>2026-02-10T08:27:04.016025</dc:date>
    <dc:format>image/svg+xml</dc:format>
    <dc:creator>
     <cc:Agent>
      <dc:title>Matplotlib v3.10.7, https://matplotlib.org/</dc:title>
     </cc:Agent>
    </dc:creator>
   </cc:Work>
  </rdf:RDF>
 </metadata>
 <defs>
  <style type="text/css">*{stroke-linejoin: round; stroke-linecap: butt}</style>
 </defs>
 <g id="figure_1">
  <g id="patch_1">
   <path d="M 0 325.196328 
L 857.6075 325.196328 
L 857.6075 0 
L 0 0 
z
" style="fill: #ffffff"/>
  </g>
  <g id="axes_1">
   <g id="patch_2">
    <path d="M 33.7225 267.65 
L 441.306711 267.65 
L 441.306711 44.64 
L 33.7225 44.64 
z
" style="fill: #ffffff"/>
   </g>
   <g id="matplotlib.axis_1">
    <g id="xtick_1">
     <g id="text_1">
      <!-- Sensor -->
      <g transform="translate(59.946616 281.0175) scale(0.08 -0.08)">
       <defs>
        <path id="NotoSansCJKjp-Regular-53" d="M 1946 -83 
C 2925 -83 3539 506 3539 1248 
C 3539 1946 3117 2266 2573 2502 
L 1907 2790 
C 1542 2944 1126 3117 1126 3578 
C 1126 3994 1472 4256 2003 4256 
C 2438 4256 2784 4090 3072 3821 
L 3379 4198 
C 3053 4538 2560 4774 2003 4774 
C 1152 4774 525 4256 525 3533 
C 525 2848 1043 2515 1478 2330 
L 2150 2035 
C 2598 1837 2938 1683 2938 1197 
C 2938 742 2573 435 1952 435 
C 1466 435 992 666 659 1018 
L 307 608 
C 710 186 1280 -83 1946 -83 
z
" transform="scale(0.015625)"/>
        <path id="NotoSansCJKjp-Regular-65" d="M 1997 -83 
C 2464 -83 2835 70 3136 269 
L 2931 659 
C 2669 486 2400 384 2061 384 
C 1402 384 947 858 909 1600 
L 3251 1600 
C 3264 1690 3277 1805 3277 1933 
C 3277 2925 2778 3565 1888 3565 
C 1094 3565 333 2867 333 1734 
C 333 589 1069 -83 1997 -83 
z
M 902 2016 
C 973 2707 1408 3098 1901 3098 
C 2445 3098 2765 2720 2765 2016 
L 902 2016 
z
" transform="scale(0.015625)"/>
        <path id="NotoSansCJKjp-Regular-6e" d="M 589 0 
L 1178 0 
L 1178 2522 
C 1523 2874 1766 3053 2125 3053 
C 2586 3053 2784 2778 2784 2125 
L 2784 0 
L 3366 0 
L 3366 2202 
C 3366 3085 3034 3565 2304 3565 
C 1830 3565 1466 3302 1139 2970 
L 1126 2970 
L 1069 3475 
L 589 3475 
L 589 0 
z
" transform="scale(0.015625)"/>
        <path id="NotoSansCJKjp-Regular-73" d="M 1498 -83 
C 2317 -83 2758 384 2758 947 
C 2758 1606 2208 1811 1702 2003 
C 1312 2150 954 2278 954 2605 
C 954 2880 1158 3110 1600 3110 
C 1907 3110 2150 2976 2387 2803 
L 2669 3168 
C 2406 3386 2022 3565 1594 3565 
C 832 3565 397 3130 397 2579 
C 397 1984 922 1754 1408 1574 
C 1792 1434 2202 1267 2202 915 
C 2202 614 1978 371 1517 371 
C 1101 371 794 538 486 787 
L 205 397 
C 531 122 1005 -83 1498 -83 
z
" transform="scale(0.015625)"/>
        <path id="NotoSansCJKjp-Regular-6f" d="M 1939 -83 
C 2790 -83 3546 582 3546 1734 
C 3546 2893 2790 3565 1939 3565 
C 1088 3565 333 2893 333 1734 
C 333 582 1088 -83 1939 -83 
z
M 1939 403 
C 1338 403 934 934 934 1734 
C 934 2534 1338 3072 1939 3072 
C 2541 3072 2950 2534 2950 1734 
C 2950 934 2541 403 1939 403 
z
" transform="scale(0.015625)"/>
        <path id="NotoSansCJKjp-Regular-72" d="M 589 0 
L 1178 0 
L 1178 2234 
C 1408 2822 1760 3040 2048 3040 
C 2195 3040 2272 3021 2387 2982 
L 2496 3488 
C 2387 3546 2278 3565 2125 3565 
C 1741 3565 1382 3283 1139 2842 
L 1126 2842 
L 1069 3475 
L 589 3475 
L 589 0 
z
" transform="scale(0.015625)"/>
       </defs>
       <use xlink:href="#NotoSansCJKjp-Regular-53"/>
       <use xlink:href="#NotoSansCJKjp-Regular-65" transform="translate(59.599991 0)"/>
       <use xlink:href="#NotoSansCJKjp-Regular-6e" transform="translate(114.999985 0)"/>
       <use xlink:href="#NotoSansCJKjp-Regular-73" transform="translate(175.999969 0)"/>
       <use xlink:href="#NotoSansCJKjp-Regular-6f" transform="translate(222.799957 0)"/>
       <use xlink:href="#NotoSansCJKjp-Regular-72" transform="translate(283.399948 0)"/>
      </g>
      <!-- Covariance -->
      <g transform="translate(51.922866 290.491) scale(0.08 -0.08)">
       <defs>
        <path id="NotoSansCJKjp-Regular-43" d="M 2413 -83 
C 3021 -83 3482 160 3853 589 
L 3526 966 
C 3226 634 2886 435 2438 435 
C 1542 435 979 1178 979 2362 
C 979 3533 1574 4256 2458 4256 
C 2861 4256 3168 4077 3418 3814 
L 3738 4198 
C 3469 4499 3021 4774 2451 4774 
C 1261 4774 371 3859 371 2342 
C 371 819 1242 -83 2413 -83 
z
" transform="scale(0.015625)"/>
        <path id="NotoSansCJKjp-Regular-76" d="M 1338 0 
L 2022 0 
L 3251 3475 
L 2675 3475 
L 2016 1498 
C 1914 1158 1798 806 1696 474 
L 1664 474 
C 1562 806 1453 1158 1344 1498 
L 691 3475 
L 83 3475 
L 1338 0 
z
" transform="scale(0.015625)"/>
        <path id="NotoSansCJKjp-Regular-61" d="M 1389 -83 
C 1818 -83 2208 141 2541 416 
L 2560 416 
L 2611 0 
L 3091 0 
L 3091 2138 
C 3091 3002 2739 3565 1888 3565 
C 1325 3565 838 3315 525 3110 
L 749 2707 
C 1024 2893 1389 3078 1792 3078 
C 2362 3078 2509 2650 2509 2202 
C 1030 2035 378 1658 378 902 
C 378 275 806 -83 1389 -83 
z
M 1555 390 
C 1210 390 941 544 941 941 
C 941 1389 1338 1677 2509 1811 
L 2509 845 
C 2170 544 1888 390 1555 390 
z
" transform="scale(0.015625)"/>
        <path id="NotoSansCJKjp-Regular-69" d="M 589 0 
L 1178 0 
L 1178 3475 
L 589 3475 
L 589 0 
z
M 883 4192 
C 1114 4192 1274 4346 1274 4582 
C 1274 4806 1114 4960 883 4960 
C 653 4960 499 4806 499 4582 
C 499 4346 653 4192 883 4192 
z
" transform="scale(0.015625)"/>
        <path id="NotoSansCJKjp-Regular-63" d="M 1958 -83 
C 2374 -83 2771 83 3085 352 
L 2829 749 
C 2611 557 2330 403 2010 403 
C 1370 403 934 934 934 1734 
C 934 2534 1395 3072 2029 3072 
C 2298 3072 2522 2950 2720 2771 
L 3014 3155 
C 2771 3373 2458 3565 2003 3565 
C 1107 3565 333 2893 333 1734 
C 333 582 1037 -83 1958 -83 
z
" transform="scale(0.015625)"/>
       </defs>
       <use xlink:href="#NotoSansCJKjp-Regular-43"/>
       <use xlink:href="#NotoSansCJKjp-Regular-6f" transform="translate(63.799988 0)"/>
       <use xlink:href="#NotoSansCJKjp-Regular-76" transform="translate(124.399979 0)"/>
       <use xlink:href="#NotoSansCJKjp-Regular-61" transform="translate(176.499969 0)"/>
       <use xlink:href="#NotoSansCJKjp-Regular-72" transform="translate(232.799957 0)"/>
       <use xlink:href="#NotoSansCJKjp-Regular-69" transform="translate(271.599945 0)"/>
       <use xlink:href="#NotoSansCJKjp-Regular-61" transform="translate(299.09993 0)"/>
       <use xlink:href="#NotoSansCJKjp-Regular-6e" transform="translate(355.399918 0)"/>
       <use xlink:href="#NotoSansCJKjp-Regular-63" transform="translate(416.399902 0)"/>
       <use xlink:href="#NotoSansCJKjp-Regular-65" transform="translate(467.399887 0)"/>
      </g>
     </g>
    </g>
    <g id="xtick_2">
     <g id="text_2">
      <!-- Transform -->
      <g transform="translate(135.683111 281.0175) scale(0.08 -0.08)">
       <defs>
        <path id="NotoSansCJKjp-Regular-54" d="M 1619 0 
L 2214 0 
L 2214 4192 
L 3635 4192 
L 3635 4691 
L 198 4691 
L 198 4192 
L 1619 4192 
L 1619 0 
z
" transform="scale(0.015625)"/>
        <path id="NotoSansCJKjp-Regular-66" d="M 211 3002 
L 685 3002 
L 685 0 
L 1267 0 
L 1267 3002 
L 2003 3002 
L 2003 3475 
L 1267 3475 
L 1267 4026 
C 1267 4474 1427 4710 1760 4710 
C 1882 4710 2022 4678 2150 4614 
L 2278 5069 
C 2118 5133 1914 5178 1696 5178 
C 1005 5178 685 4736 685 4032 
L 685 3475 
L 211 3443 
L 211 3002 
z
" transform="scale(0.015625)"/>
        <path id="NotoSansCJKjp-Regular-6d" d="M 589 0 
L 1178 0 
L 1178 2522 
C 1491 2880 1786 3053 2048 3053 
C 2490 3053 2694 2778 2694 2125 
L 2694 0 
L 3277 0 
L 3277 2522 
C 3603 2880 3885 3053 4154 3053 
C 4595 3053 4800 2778 4800 2125 
L 4800 0 
L 5382 0 
L 5382 2202 
C 5382 3085 5043 3565 4333 3565 
C 3904 3565 3546 3290 3181 2899 
C 3040 3309 2758 3565 2221 3565 
C 1805 3565 1446 3302 1139 2970 
L 1126 2970 
L 1069 3475 
L 589 3475 
L 589 0 
z
" transform="scale(0.015625)"/>
       </defs>
       <use xlink:href="#NotoSansCJKjp-Regular-54"/>
       <use xlink:href="#NotoSansCJKjp-Regular-72" transform="translate(59.899994 0)"/>
       <use xlink:href="#NotoSansCJKjp-Regular-61" transform="translate(98.699982 0)"/>
       <use xlink:href="#NotoSansCJKjp-Regular-6e" transform="translate(154.999969 0)"/>
       <use xlink:href="#NotoSansCJKjp-Regular-73" transform="translate(215.999954 0)"/>
       <use xlink:href="#NotoSansCJKjp-Regular-66" transform="translate(262.799942 0)"/>
       <use xlink:href="#NotoSansCJKjp-Regular-6f" transform="translate(295.299927 0)"/>
       <use xlink:href="#NotoSansCJKjp-Regular-72" transform="translate(355.899918 0)"/>
       <use xlink:href="#NotoSansCJKjp-Regular-6d" transform="translate(394.699905 0)"/>
      </g>
      <!-- + Filter -->
      <g transform="translate(142.337486 290.491) scale(0.08 -0.08)">
       <defs>
        <path id="NotoSansCJKjp-Regular-2b" d="M 1542 742 
L 2010 742 
L 2010 2144 
L 3315 2144 
L 3315 2579 
L 2010 2579 
L 2010 3981 
L 1542 3981 
L 1542 2579 
L 243 2579 
L 243 2144 
L 1542 2144 
L 1542 742 
z
" transform="scale(0.015625)"/>
        <path id="NotoSansCJKjp-Regular-20" transform="scale(0.015625)"/>
        <path id="NotoSansCJKjp-Regular-46" d="M 646 0 
L 1235 0 
L 1235 2106 
L 3027 2106 
L 3027 2605 
L 1235 2605 
L 1235 4192 
L 3347 4192 
L 3347 4691 
L 646 4691 
L 646 0 
z
" transform="scale(0.015625)"/>
        <path id="NotoSansCJKjp-Regular-6c" d="M 1203 -83 
C 1363 -83 1459 -58 1542 -32 
L 1459 416 
C 1395 403 1370 403 1338 403 
C 1248 403 1178 474 1178 653 
L 1178 5094 
L 589 5094 
L 589 691 
C 589 198 768 -83 1203 -83 
z
" transform="scale(0.015625)"/>
        <path id="NotoSansCJKjp-Regular-74" d="M 1677 -83 
C 1894 -83 2125 -19 2323 45 
L 2208 486 
C 2093 435 1939 390 1811 390 
C 1408 390 1274 634 1274 1056 
L 1274 3002 
L 2221 3002 
L 2221 3475 
L 1274 3475 
L 1274 4454 
L 787 4454 
L 723 3475 
L 173 3443 
L 173 3002 
L 691 3002 
L 691 1075 
C 691 378 941 -83 1677 -83 
z
" transform="scale(0.015625)"/>
       </defs>
       <use xlink:href="#NotoSansCJKjp-Regular-2b"/>
       <use xlink:href="#NotoSansCJKjp-Regular-20" transform="translate(55.499985 0)"/>
       <use xlink:href="#NotoSansCJKjp-Regular-46" transform="translate(77.899979 0)"/>
       <use xlink:href="#NotoSansCJKjp-Regular-69" transform="translate(133.099976 0)"/>
       <use xlink:href="#NotoSansCJKjp-Regular-6c" transform="translate(160.59996 0)"/>
       <use xlink:href="#NotoSansCJKjp-Regular-74" transform="translate(188.999954 0)"/>
       <use xlink:href="#NotoSansCJKjp-Regular-65" transform="translate(226.699951 0)"/>
       <use xlink:href="#NotoSansCJKjp-Regular-72" transform="translate(282.099945 0)"/>
      </g>
     </g>
    </g>
    <g id="xtick_3">
     <g id="text_3">
      <!-- Covariance -->
      <g transform="translate(216.603355 281.0175) scale(0.08 -0.08)">
       <use xlink:href="#NotoSansCJKjp-Regular-43"/>
       <use xlink:href="#NotoSansCJKjp-Regular-6f" transform="translate(63.799988 0)"/>
       <use xlink:href="#NotoSansCJKjp-Regular-76" transform="translate(124.399979 0)"/>
       <use xlink:href="#NotoSansCJKjp-Regular-61" transform="translate(176.499969 0)"/>
       <use xlink:href="#NotoSansCJKjp-Regular-72" transform="translate(232.799957 0)"/>
       <use xlink:href="#NotoSansCJKjp-Regular-69" transform="translate(271.599945 0)"/>
       <use xlink:href="#NotoSansCJKjp-Regular-61" transform="translate(299.09993 0)"/>
       <use xlink:href="#NotoSansCJKjp-Regular-6e" transform="translate(355.399918 0)"/>
       <use xlink:href="#NotoSansCJKjp-Regular-63" transform="translate(416.399902 0)"/>
       <use xlink:href="#NotoSansCJKjp-Regular-65" transform="translate(467.399887 0)"/>
      </g>
      <!-- Transform -->
      <g transform="translate(218.023355 290.491) scale(0.08 -0.08)">
       <use xlink:href="#NotoSansCJKjp-Regular-54"/>
       <use xlink:href="#NotoSansCJKjp-Regular-72" transform="translate(59.899994 0)"/>
       <use xlink:href="#NotoSansCJKjp-Regular-61" transform="translate(98.699982 0)"/>
       <use xlink:href="#NotoSansCJKjp-Regular-6e" transform="translate(154.999969 0)"/>
       <use xlink:href="#NotoSansCJKjp-Regular-73" transform="translate(215.999954 0)"/>
       <use xlink:href="#NotoSansCJKjp-Regular-66" transform="translate(262.799942 0)"/>
       <use xlink:href="#NotoSansCJKjp-Regular-6f" transform="translate(295.299927 0)"/>
       <use xlink:href="#NotoSansCJKjp-Regular-72" transform="translate(355.899918 0)"/>
       <use xlink:href="#NotoSansCJKjp-Regular-6d" transform="translate(394.699905 0)"/>
      </g>
     </g>
    </g>
    <g id="xtick_4">
     <g id="text_4">
      <!-- Raster- -->
      <g transform="translate(306.526725 281.0175) scale(0.08 -0.08)">
       <defs>
        <path id="NotoSansCJKjp-Regular-52" d="M 1235 2464 
L 1235 4211 
L 2022 4211 
C 2758 4211 3162 3994 3162 3379 
C 3162 2765 2758 2464 2022 2464 
L 1235 2464 
z
M 3219 0 
L 3885 0 
L 2694 2054 
C 3328 2208 3750 2643 3750 3379 
C 3750 4352 3066 4691 2112 4691 
L 646 4691 
L 646 0 
L 1235 0 
L 1235 1990 
L 2080 1990 
L 3219 0 
z
" transform="scale(0.015625)"/>
        <path id="NotoSansCJKjp-Regular-2d" d="M 294 1568 
L 1933 1568 
L 1933 2016 
L 294 2016 
L 294 1568 
z
" transform="scale(0.015625)"/>
       </defs>
       <use xlink:href="#NotoSansCJKjp-Regular-52"/>
       <use xlink:href="#NotoSansCJKjp-Regular-61" transform="translate(63.499985 0)"/>
       <use xlink:href="#NotoSansCJKjp-Regular-73" transform="translate(119.799973 0)"/>
       <use xlink:href="#NotoSansCJKjp-Regular-74" transform="translate(166.59996 0)"/>
       <use xlink:href="#NotoSansCJKjp-Regular-65" transform="translate(204.299957 0)"/>
       <use xlink:href="#NotoSansCJKjp-Regular-72" transform="translate(259.699951 0)"/>
       <use xlink:href="#NotoSansCJKjp-Regular-2d" transform="translate(298.499939 0)"/>
      </g>
      <!-- ization -->
      <g transform="translate(307.1311 290.491) scale(0.08 -0.08)">
       <defs>
        <path id="NotoSansCJKjp-Regular-7a" d="M 224 0 
L 2854 0 
L 2854 474 
L 960 474 
L 2797 3162 
L 2797 3475 
L 422 3475 
L 422 3002 
L 2054 3002 
L 224 314 
L 224 0 
z
" transform="scale(0.015625)"/>
       </defs>
       <use xlink:href="#NotoSansCJKjp-Regular-69"/>
       <use xlink:href="#NotoSansCJKjp-Regular-7a" transform="translate(27.499985 0)"/>
       <use xlink:href="#NotoSansCJKjp-Regular-61" transform="translate(74.999969 0)"/>
       <use xlink:href="#NotoSansCJKjp-Regular-74" transform="translate(131.299957 0)"/>
       <use xlink:href="#NotoSansCJKjp-Regular-69" transform="translate(168.999954 0)"/>
       <use xlink:href="#NotoSansCJKjp-Regular-6f" transform="translate(196.499939 0)"/>
       <use xlink:href="#NotoSansCJKjp-Regular-6e" transform="translate(257.09993 0)"/>
      </g>
     </g>
    </g>
    <g id="xtick_5">
     <g id="text_5">
      <!-- Map -->
      <g transform="translate(394.215094 281.0175) scale(0.08 -0.08)">
       <defs>
        <path id="NotoSansCJKjp-Regular-4d" d="M 646 0 
L 1178 0 
L 1178 2598 
C 1178 3002 1139 3571 1101 3981 
L 1126 3981 
L 1504 2912 
L 2394 474 
L 2790 474 
L 3674 2912 
L 4051 3981 
L 4077 3981 
C 4045 3571 4000 3002 4000 2598 
L 4000 0 
L 4550 0 
L 4550 4691 
L 3840 4691 
L 2944 2182 
C 2835 1862 2739 1530 2618 1203 
L 2592 1203 
C 2477 1530 2374 1862 2253 2182 
L 1357 4691 
L 646 4691 
L 646 0 
z
" transform="scale(0.015625)"/>
        <path id="NotoSansCJKjp-Regular-70" d="M 589 -1466 
L 1178 -1466 
L 1178 -288 
L 1158 320 
C 1472 58 1805 -83 2118 -83 
C 2912 -83 3629 602 3629 1792 
C 3629 2867 3142 3565 2246 3565 
C 1843 3565 1453 3334 1139 3072 
L 1126 3072 
L 1069 3475 
L 589 3475 
L 589 -1466 
z
M 2022 410 
C 1792 410 1485 499 1178 768 
L 1178 2598 
C 1510 2906 1811 3072 2099 3072 
C 2765 3072 3021 2560 3021 1786 
C 3021 928 2598 410 2022 410 
z
" transform="scale(0.015625)"/>
       </defs>
       <use xlink:href="#NotoSansCJKjp-Regular-4d"/>
       <use xlink:href="#NotoSansCJKjp-Regular-61" transform="translate(81.199982 0)"/>
       <use xlink:href="#NotoSansCJKjp-Regular-70" transform="translate(137.499969 0)"/>
      </g>
      <!-- Update -->
      <g transform="translate(388.375094 290.491) scale(0.08 -0.08)">
       <defs>
        <path id="NotoSansCJKjp-Regular-55" d="M 2310 -83 
C 3264 -83 3994 429 3994 1933 
L 3994 4691 
L 3424 4691 
L 3424 1920 
C 3424 794 2931 435 2310 435 
C 1696 435 1216 794 1216 1920 
L 1216 4691 
L 627 4691 
L 627 1933 
C 627 429 1350 -83 2310 -83 
z
" transform="scale(0.015625)"/>
        <path id="NotoSansCJKjp-Regular-64" d="M 1773 -83 
C 2189 -83 2560 141 2829 410 
L 2848 410 
L 2899 0 
L 3379 0 
L 3379 5094 
L 2790 5094 
L 2790 3757 
L 2822 3162 
C 2515 3411 2253 3565 1843 3565 
C 1050 3565 339 2861 339 1734 
C 339 576 902 -83 1773 -83 
z
M 1901 410 
C 1293 410 941 902 941 1741 
C 941 2534 1389 3072 1946 3072 
C 2234 3072 2502 2970 2790 2707 
L 2790 883 
C 2502 563 2221 410 1901 410 
z
" transform="scale(0.015625)"/>
       </defs>
       <use xlink:href="#NotoSansCJKjp-Regular-55"/>
       <use xlink:href="#NotoSansCJKjp-Regular-70" transform="translate(72.099991 0)"/>
       <use xlink:href="#NotoSansCJKjp-Regular-64" transform="translate(134.099976 0)"/>
       <use xlink:href="#NotoSansCJKjp-Regular-61" transform="translate(196.09996 0)"/>
       <use xlink:href="#NotoSansCJKjp-Regular-74" transform="translate(252.399948 0)"/>
       <use xlink:href="#NotoSansCJKjp-Regular-65" transform="translate(290.099945 0)"/>
      </g>
     </g>
    </g>
   </g>
   <g id="matplotlib.axis_2">
    <g id="ytick_1">
     <g id="line2d_1">
      <path d="M 33.7225 267.65 
L 441.306711 267.65 
" clip-path="url(#p02341b449c)" style="fill: none; stroke: #000000; stroke-opacity: 0.1; stroke-width: 0.6; stroke-linecap: square"/>
     </g>
     <g id="line2d_2">
      <defs>
       <path id="m3679cad684" d="M 0 0 
L -3.5 0 
" style="stroke: #000000; stroke-width: 0.8"/>
      </defs>
      <g>
       <use xlink:href="#m3679cad684" x="33.7225" y="267.65" style="stroke: #000000; stroke-width: 0.8"/>
      </g>
     </g>
     <g id="text_6">
      <!-- 0 -->
      <g transform="translate(21.45 271.430703) scale(0.095 -0.095)">
       <defs>
        <path id="NotoSansCJKjp-Regular-30" d="M 1779 -83 
C 2669 -83 3238 723 3238 2362 
C 3238 3987 2669 4774 1779 4774 
C 883 4774 320 3987 320 2362 
C 320 723 883 -83 1779 -83 
z
M 1779 390 
C 1248 390 883 986 883 2362 
C 883 3731 1248 4314 1779 4314 
C 2310 4314 2675 3731 2675 2362 
C 2675 986 2310 390 1779 390 
z
" transform="scale(0.015625)"/>
       </defs>
       <use xlink:href="#NotoSansCJKjp-Regular-30"/>
      </g>
     </g>
    </g>
    <g id="ytick_2">
     <g id="line2d_3">
      <path d="M 33.7225 223.956818 
L 441.306711 223.956818 
" clip-path="url(#p02341b449c)" style="fill: none; stroke: #000000; stroke-opacity: 0.1; stroke-width: 0.6; stroke-linecap: square"/>
     </g>
     <g id="line2d_4">
      <g>
       <use xlink:href="#m3679cad684" x="33.7225" y="223.956818" style="stroke: #000000; stroke-width: 0.8"/>
      </g>
     </g>
     <g id="text_7">
      <!-- 1 -->
      <g transform="translate(21.45 227.737521) scale(0.095 -0.095)">
       <defs>
        <path id="NotoSansCJKjp-Regular-31" d="M 563 0 
L 3136 0 
L 3136 486 
L 2195 486 
L 2195 4691 
L 1747 4691 
C 1491 4544 1190 4435 774 4358 
L 774 3987 
L 1613 3987 
L 1613 486 
L 563 486 
L 563 0 
z
" transform="scale(0.015625)"/>
       </defs>
       <use xlink:href="#NotoSansCJKjp-Regular-31"/>
      </g>
     </g>
    </g>
    <g id="ytick_3">
     <g id="line2d_5">
      <path d="M 33.7225 180.263636 
L 441.306711 180.263636 
" clip-path="url(#p02341b449c)" style="fill: none; stroke: #000000; stroke-opacity: 0.1; stroke-width: 0.6; stroke-linecap: square"/>
     </g>
     <g id="line2d_6">
      <g>
       <use xlink:href="#m3679cad684" x="33.7225" y="180.263636" style="stroke: #000000; stroke-width: 0.8"/>
      </g>
     </g>
     <g id="text_8">
      <!-- 2 -->
      <g transform="translate(21.45 184.044339) scale(0.095 -0.095)">
       <defs>
        <path id="NotoSansCJKjp-Regular-32" d="M 282 0 
L 3232 0 
L 3232 506 
L 1933 506 
C 1696 506 1408 480 1165 461 
C 2266 1504 3008 2458 3008 3398 
C 3008 4230 2477 4774 1638 4774 
C 1043 4774 634 4506 256 4090 
L 595 3757 
C 858 4070 1184 4301 1568 4301 
C 2150 4301 2432 3910 2432 3373 
C 2432 2566 1754 1632 282 346 
L 282 0 
z
" transform="scale(0.015625)"/>
       </defs>
       <use xlink:href="#NotoSansCJKjp-Regular-32"/>
      </g>
     </g>
    </g>
    <g id="ytick_4">
     <g id="line2d_7">
      <path d="M 33.7225 136.570455 
L 441.306711 136.570455 
" clip-path="url(#p02341b449c)" style="fill: none; stroke: #000000; stroke-opacity: 0.1; stroke-width: 0.6; stroke-linecap: square"/>
     </g>
     <g id="line2d_8">
      <g>
       <use xlink:href="#m3679cad684" x="33.7225" y="136.570455" style="stroke: #000000; stroke-width: 0.8"/>
      </g>
     </g>
     <g id="text_9">
      <!-- 3 -->
      <g transform="translate(21.45 140.351158) scale(0.095 -0.095)">
       <defs>
        <path id="NotoSansCJKjp-Regular-33" d="M 1683 -83 
C 2522 -83 3194 416 3194 1254 
C 3194 1901 2752 2310 2202 2445 
L 2202 2477 
C 2701 2650 3034 3034 3034 3603 
C 3034 4346 2458 4774 1664 4774 
C 1126 4774 710 4538 358 4218 
L 672 3846 
C 941 4115 1267 4301 1645 4301 
C 2138 4301 2438 4006 2438 3558 
C 2438 3053 2112 2662 1139 2662 
L 1139 2214 
C 2227 2214 2598 1843 2598 1274 
C 2598 736 2208 403 1645 403 
C 1114 403 762 659 486 941 
L 186 563 
C 493 224 954 -83 1683 -83 
z
" transform="scale(0.015625)"/>
       </defs>
       <use xlink:href="#NotoSansCJKjp-Regular-33"/>
      </g>
     </g>
    </g>
    <g id="ytick_5">
     <g id="line2d_9">
      <path d="M 33.7225 92.877273 
L 441.306711 92.877273 
" clip-path="url(#p02341b449c)" style="fill: none; stroke: #000000; stroke-opacity: 0.1; stroke-width: 0.6; stroke-linecap: square"/>
     </g>
     <g id="line2d_10">
      <g>
       <use xlink:href="#m3679cad684" x="33.7225" y="92.877273" style="stroke: #000000; stroke-width: 0.8"/>
      </g>
     </g>
     <g id="text_10">
      <!-- 4 -->
      <g transform="translate(21.45 96.657976) scale(0.095 -0.095)">
       <defs>
        <path id="NotoSansCJKjp-Regular-34" d="M 2176 0 
L 2726 0 
L 2726 1293 
L 3354 1293 
L 3354 1760 
L 2726 1760 
L 2726 4691 
L 2080 4691 
L 128 1677 
L 128 1293 
L 2176 1293 
L 2176 0 
z
M 2176 1760 
L 736 1760 
L 1805 3360 
C 1939 3590 2067 3827 2182 4051 
L 2208 4051 
C 2195 3814 2176 3430 2176 3200 
L 2176 1760 
z
" transform="scale(0.015625)"/>
       </defs>
       <use xlink:href="#NotoSansCJKjp-Regular-34"/>
      </g>
     </g>
    </g>
    <g id="ytick_6">
     <g id="line2d_11">
      <path d="M 33.7225 49.184091 
L 441.306711 49.184091 
" clip-path="url(#p02341b449c)" style="fill: none; stroke: #000000; stroke-opacity: 0.1; stroke-width: 0.6; stroke-linecap: square"/>
     </g>
     <g id="line2d_12">
      <g>
       <use xlink:href="#m3679cad684" x="33.7225" y="49.184091" style="stroke: #000000; stroke-width: 0.8"/>
      </g>
     </g>
     <g id="text_11">
      <!-- 5 -->
      <g transform="translate(21.45 52.964794) scale(0.095 -0.095)">
       <defs>
        <path id="NotoSansCJKjp-Regular-35" d="M 1677 -83 
C 2464 -83 3213 499 3213 1523 
C 3213 2560 2573 3021 1798 3021 
C 1517 3021 1306 2950 1094 2835 
L 1216 4192 
L 2982 4192 
L 2982 4691 
L 704 4691 
L 550 2502 
L 864 2304 
C 1133 2483 1331 2579 1645 2579 
C 2234 2579 2618 2182 2618 1510 
C 2618 826 2176 403 1619 403 
C 1075 403 730 653 467 922 
L 173 538 
C 493 224 941 -83 1677 -83 
z
" transform="scale(0.015625)"/>
       </defs>
       <use xlink:href="#NotoSansCJKjp-Regular-35"/>
      </g>
     </g>
    </g>
    <g id="text_12">
     <!-- Time (ms) -->
     <g style="fill: #555555" transform="translate(15.159375 179.384844) rotate(-90) scale(0.1 -0.1)">
      <defs>
       <path id="NotoSansCJKjp-Regular-28" d="M 1530 -1254 
L 1888 -1094 
C 1338 -186 1075 902 1075 1990 
C 1075 3072 1338 4154 1888 5069 
L 1530 5235 
C 941 4275 589 3245 589 1990 
C 589 730 941 -301 1530 -1254 
z
" transform="scale(0.015625)"/>
       <path id="NotoSansCJKjp-Regular-29" d="M 634 -1254 
C 1222 -301 1574 730 1574 1990 
C 1574 3245 1222 4275 634 5235 
L 269 5069 
C 819 4154 1094 3072 1094 1990 
C 1094 902 819 -186 269 -1094 
L 634 -1254 
z
" transform="scale(0.015625)"/>
      </defs>
      <use xlink:href="#NotoSansCJKjp-Regular-54"/>
      <use xlink:href="#NotoSansCJKjp-Regular-69" transform="translate(59.899994 0)"/>
      <use xlink:href="#NotoSansCJKjp-Regular-6d" transform="translate(87.399979 0)"/>
      <use xlink:href="#NotoSansCJKjp-Regular-65" transform="translate(179.999969 0)"/>
      <use xlink:href="#NotoSansCJKjp-Regular-20" transform="translate(235.399963 0)"/>
      <use xlink:href="#NotoSansCJKjp-Regular-28" transform="translate(257.799957 0)"/>
      <use xlink:href="#NotoSansCJKjp-Regular-6d" transform="translate(291.599945 0)"/>
      <use xlink:href="#NotoSansCJKjp-Regular-73" transform="translate(384.199936 0)"/>
      <use xlink:href="#NotoSansCJKjp-Regular-29" transform="translate(430.999924 0)"/>
     </g>
    </g>
   </g>
   <g id="patch_3">
    <path d="M 52.249055 267.65 
L 93.419177 267.65 
L 93.419177 198.614773 
L 52.249055 198.614773 
z
" clip-path="url(#p02341b449c)" style="fill: #b5d7ed"/>
   </g>
   <g id="patch_4">
    <path d="M 134.5893 267.65 
L 175.759422 267.65 
L 175.759422 230.510795 
L 134.5893 230.510795 
z
" clip-path="url(#p02341b449c)" style="fill: #93c5e3"/>
   </g>
   <g id="patch_5">
    <path d="M 216.929544 267.65 
L 258.099666 267.65 
L 258.099666 223.082955 
L 216.929544 223.082955 
z
" clip-path="url(#p02341b449c)" style="fill: #6bb1d9"/>
   </g>
   <g id="patch_6">
    <path d="M 299.269789 267.65 
L 340.439911 267.65 
L 340.439911 130.890341 
L 299.269789 130.890341 
z
" clip-path="url(#p02341b449c)" style="fill: #4a9cce"/>
   </g>
   <g id="patch_7">
    <path d="M 381.610033 267.65 
L 422.780156 267.65 
L 422.780156 220.461364 
L 381.610033 220.461364 
z
" clip-path="url(#p02341b449c)" style="fill: #3088c0"/>
   </g>
   <g id="text_13">
    <!-- 1.58 -->
    <g style="fill: #444444" transform="translate(64.300249 167.008175) scale(0.085 -0.085)">
     <defs>
      <path id="NotoSansCJKjp-Medium-31" d="M 544 0 
L 3238 0 
L 3238 608 
L 2323 608 
L 2323 4717 
L 1766 4717 
C 1491 4544 1178 4429 736 4352 
L 736 3885 
L 1581 3885 
L 1581 608 
L 544 608 
L 544 0 
z
" transform="scale(0.015625)"/>
      <path id="NotoSansCJKjp-Medium-2e" d="M 954 -90 
C 1235 -90 1453 134 1453 435 
C 1453 736 1235 954 954 954 
C 678 954 461 736 461 435 
C 461 134 678 -90 954 -90 
z
" transform="scale(0.015625)"/>
      <path id="NotoSansCJKjp-Medium-35" d="M 1715 -90 
C 2541 -90 3302 506 3302 1549 
C 3302 2579 2656 3046 1869 3046 
C 1619 3046 1427 2989 1222 2886 
L 1331 4090 
L 3078 4090 
L 3078 4717 
L 691 4717 
L 550 2477 
L 915 2240 
C 1184 2419 1363 2502 1664 2502 
C 2202 2502 2560 2144 2560 1530 
C 2560 896 2157 525 1632 525 
C 1133 525 794 755 525 1024 
L 173 544 
C 506 218 973 -90 1715 -90 
z
" transform="scale(0.015625)"/>
      <path id="NotoSansCJKjp-Medium-38" d="M 1830 -90 
C 2746 -90 3354 454 3354 1152 
C 3354 1792 2982 2163 2560 2400 
L 2560 2432 
C 2854 2650 3181 3059 3181 3539 
C 3181 4275 2669 4787 1856 4787 
C 1082 4787 506 4307 506 3571 
C 506 3072 787 2720 1133 2470 
L 1133 2438 
C 704 2208 294 1792 294 1171 
C 294 435 947 -90 1830 -90 
z
M 2144 2618 
C 1613 2822 1165 3059 1165 3571 
C 1165 3994 1453 4256 1837 4256 
C 2298 4256 2560 3930 2560 3501 
C 2560 3181 2419 2880 2144 2618 
z
M 1850 448 
C 1338 448 947 774 947 1248 
C 947 1651 1171 2003 1498 2227 
C 2138 1965 2656 1747 2656 1178 
C 2656 730 2330 448 1850 448 
z
" transform="scale(0.015625)"/>
     </defs>
     <use xlink:href="#NotoSansCJKjp-Medium-31"/>
     <use xlink:href="#NotoSansCJKjp-Medium-2e" transform="translate(56.999985 0)"/>
     <use xlink:href="#NotoSansCJKjp-Medium-35" transform="translate(86.799973 0)"/>
     <use xlink:href="#NotoSansCJKjp-Medium-38" transform="translate(143.799957 0)"/>
    </g>
   </g>
   <g id="text_14">
    <!-- 0.85 -->
    <g style="fill: #444444" transform="translate(146.640494 218.129197) scale(0.085 -0.085)">
     <defs>
      <path id="NotoSansCJKjp-Medium-30" d="M 1830 -90 
C 2746 -90 3347 736 3347 2374 
C 3347 4000 2746 4800 1830 4800 
C 902 4800 301 4006 301 2374 
C 301 736 902 -90 1830 -90 
z
M 1830 499 
C 1350 499 1011 1018 1011 2374 
C 1011 3725 1350 4218 1830 4218 
C 2304 4218 2643 3725 2643 2374 
C 2643 1018 2304 499 1830 499 
z
" transform="scale(0.015625)"/>
     </defs>
     <use xlink:href="#NotoSansCJKjp-Medium-30"/>
     <use xlink:href="#NotoSansCJKjp-Medium-2e" transform="translate(56.999985 0)"/>
     <use xlink:href="#NotoSansCJKjp-Medium-38" transform="translate(86.799973 0)"/>
     <use xlink:href="#NotoSansCJKjp-Medium-35" transform="translate(143.799957 0)"/>
    </g>
   </g>
   <g id="text_15">
    <!-- 1.02 -->
    <g style="fill: #444444" transform="translate(228.980738 210.264425) scale(0.085 -0.085)">
     <defs>
      <path id="NotoSansCJKjp-Medium-32" d="M 282 0 
L 3328 0 
L 3328 634 
L 2144 634 
C 1914 634 1619 608 1376 582 
C 2374 1536 3104 2477 3104 3386 
C 3104 4237 2547 4800 1683 4800 
C 1062 4800 646 4538 243 4096 
L 659 3686 
C 915 3981 1222 4205 1587 4205 
C 2118 4205 2381 3859 2381 3347 
C 2381 2573 1670 1658 282 429 
L 282 0 
z
" transform="scale(0.015625)"/>
     </defs>
     <use xlink:href="#NotoSansCJKjp-Medium-31"/>
     <use xlink:href="#NotoSansCJKjp-Medium-2e" transform="translate(56.999985 0)"/>
     <use xlink:href="#NotoSansCJKjp-Medium-30" transform="translate(86.799973 0)"/>
     <use xlink:href="#NotoSansCJKjp-Medium-32" transform="translate(143.799957 0)"/>
    </g>
   </g>
   <g id="text_16">
    <!-- 3.13 -->
    <g style="fill: #444444" transform="translate(311.320983 106.711584) scale(0.085 -0.085)">
     <defs>
      <path id="NotoSansCJKjp-Medium-33" d="M 1715 -90 
C 2579 -90 3290 416 3290 1267 
C 3290 1901 2861 2310 2323 2451 
L 2323 2477 
C 2822 2662 3136 3040 3136 3584 
C 3136 4358 2534 4800 1690 4800 
C 1146 4800 717 4563 339 4230 
L 723 3770 
C 998 4032 1299 4205 1664 4205 
C 2112 4205 2387 3949 2387 3533 
C 2387 3059 2080 2714 1152 2714 
L 1152 2163 
C 2214 2163 2541 1824 2541 1306 
C 2541 813 2182 525 1651 525 
C 1165 525 819 762 538 1037 
L 179 563 
C 499 211 973 -90 1715 -90 
z
" transform="scale(0.015625)"/>
     </defs>
     <use xlink:href="#NotoSansCJKjp-Medium-33"/>
     <use xlink:href="#NotoSansCJKjp-Medium-2e" transform="translate(56.999985 0)"/>
     <use xlink:href="#NotoSansCJKjp-Medium-31" transform="translate(86.799973 0)"/>
     <use xlink:href="#NotoSansCJKjp-Medium-33" transform="translate(143.799957 0)"/>
    </g>
   </g>
   <g id="text_17">
    <!-- 1.08 -->
    <g style="fill: #444444" transform="translate(393.661227 202.836584) scale(0.085 -0.085)">
     <use xlink:href="#NotoSansCJKjp-Medium-31"/>
     <use xlink:href="#NotoSansCJKjp-Medium-2e" transform="translate(56.999985 0)"/>
     <use xlink:href="#NotoSansCJKjp-Medium-30" transform="translate(86.799973 0)"/>
     <use xlink:href="#NotoSansCJKjp-Medium-38" transform="translate(143.799957 0)"/>
    </g>
   </g>
   <g id="text_18">
    <g id="patch_8">
     <path d="M 320.432309 68.9905 
L 429.079184 68.9905 
Q 432.079184 68.9905 432.079184 65.9905 
L 432.079184 55.7905 
Q 432.079184 52.7905 429.079184 52.7905 
L 320.432309 52.7905 
Q 317.432309 52.7905 317.432309 55.7905 
L 317.432309 65.9905 
Q 317.432309 68.9905 320.432309 68.9905 
z
" style="fill: #ebf5fb; stroke: #b5d7ed; stroke-width: 0.8; stroke-linejoin: miter"/>
    </g>
    <!-- Total: 7.7 ms · ~131 Hz -->
    <g style="fill: #4a9cce" transform="translate(320.432309 63.760813) scale(0.1 -0.1)">
     <defs>
      <path id="NotoSansCJKjp-Medium-54" d="M 1574 0 
L 2330 0 
L 2330 4090 
L 3712 4090 
L 3712 4717 
L 198 4717 
L 198 4090 
L 1574 4090 
L 1574 0 
z
" transform="scale(0.015625)"/>
      <path id="NotoSansCJKjp-Medium-6f" d="M 1971 -90 
C 2842 -90 3622 589 3622 1760 
C 3622 2931 2842 3610 1971 3610 
C 1094 3610 307 2931 307 1760 
C 307 589 1094 -90 1971 -90 
z
M 1971 525 
C 1414 525 1069 1011 1069 1760 
C 1069 2502 1414 3002 1971 3002 
C 2522 3002 2867 2502 2867 1760 
C 2867 1011 2522 525 1971 525 
z
" transform="scale(0.015625)"/>
      <path id="NotoSansCJKjp-Medium-74" d="M 1741 -90 
C 1997 -90 2240 -19 2432 45 
L 2298 589 
C 2195 550 2042 506 1926 506 
C 1555 506 1408 723 1408 1146 
L 1408 2931 
L 2323 2931 
L 2323 3526 
L 1408 3526 
L 1408 4499 
L 794 4499 
L 710 3526 
L 160 3482 
L 160 2931 
L 672 2931 
L 672 1152 
C 672 410 954 -90 1741 -90 
z
" transform="scale(0.015625)"/>
      <path id="NotoSansCJKjp-Medium-61" d="M 1389 -90 
C 1811 -90 2189 128 2509 403 
L 2534 403 
L 2592 0 
L 3194 0 
L 3194 2118 
C 3194 3059 2790 3610 1914 3610 
C 1350 3610 858 3379 493 3149 
L 768 2650 
C 1069 2842 1414 3008 1786 3008 
C 2304 3008 2451 2650 2458 2246 
C 992 2086 352 1696 352 934 
C 352 314 781 -90 1389 -90 
z
M 1613 499 
C 1299 499 1062 640 1062 992 
C 1062 1382 1414 1651 2458 1773 
L 2458 915 
C 2170 646 1920 499 1613 499 
z
" transform="scale(0.015625)"/>
      <path id="NotoSansCJKjp-Medium-6c" d="M 1286 -90 
C 1472 -90 1594 -58 1683 -19 
L 1594 538 
C 1523 525 1498 525 1466 525 
C 1376 525 1293 595 1293 794 
L 1293 5101 
L 557 5101 
L 557 832 
C 557 256 755 -90 1286 -90 
z
" transform="scale(0.015625)"/>
      <path id="NotoSansCJKjp-Medium-3a" d="M 954 2432 
C 1235 2432 1453 2643 1453 2944 
C 1453 3251 1235 3469 954 3469 
C 678 3469 461 3251 461 2944 
C 461 2643 678 2432 954 2432 
z
M 954 -90 
C 1235 -90 1453 134 1453 435 
C 1453 736 1235 954 954 954 
C 678 954 461 736 461 435 
C 461 134 678 -90 954 -90 
z
" transform="scale(0.015625)"/>
      <path id="NotoSansCJKjp-Medium-20" transform="scale(0.015625)"/>
      <path id="NotoSansCJKjp-Medium-37" d="M 1235 0 
L 1990 0 
C 2067 1843 2246 2880 3347 4262 
L 3347 4717 
L 320 4717 
L 320 4090 
L 2528 4090 
C 1619 2816 1318 1722 1235 0 
z
" transform="scale(0.015625)"/>
      <path id="NotoSansCJKjp-Medium-6d" d="M 557 0 
L 1293 0 
L 1293 2496 
C 1581 2816 1843 2970 2080 2970 
C 2483 2970 2669 2733 2669 2125 
L 2669 0 
L 3405 0 
L 3405 2496 
C 3699 2816 3962 2970 4198 2970 
C 4602 2970 4781 2733 4781 2125 
L 4781 0 
L 5523 0 
L 5523 2214 
C 5523 3110 5178 3610 4442 3610 
C 4000 3610 3648 3334 3296 2963 
C 3142 3366 2854 3610 2330 3610 
C 1888 3610 1542 3354 1235 3027 
L 1222 3027 
L 1158 3526 
L 557 3526 
L 557 0 
z
" transform="scale(0.015625)"/>
      <path id="NotoSansCJKjp-Medium-73" d="M 1510 -90 
C 2381 -90 2848 397 2848 992 
C 2848 1651 2304 1869 1818 2054 
C 1427 2202 1082 2317 1082 2611 
C 1082 2854 1261 3046 1658 3046 
C 1939 3046 2189 2918 2438 2739 
L 2778 3194 
C 2502 3418 2106 3610 1638 3610 
C 858 3610 384 3168 384 2579 
C 384 1984 902 1734 1370 1555 
C 1754 1408 2144 1267 2144 947 
C 2144 678 1946 474 1530 474 
C 1152 474 845 634 538 883 
L 186 403 
C 525 122 1024 -90 1510 -90 
z
" transform="scale(0.015625)"/>
      <path id="NotoSansCJKjp-Medium-b7" d="M 1818 1830 
C 2093 1830 2317 2054 2317 2349 
C 2317 2650 2093 2874 1818 2874 
C 1542 2874 1325 2650 1325 2349 
C 1325 2054 1542 1830 1818 1830 
z
" transform="scale(0.015625)"/>
      <path id="NotoSansCJKjp-Medium-7e" d="M 2451 1811 
C 2771 1811 3110 2010 3405 2483 
L 3008 2784 
C 2848 2490 2669 2355 2464 2355 
C 2061 2355 1773 2944 1203 2944 
C 877 2944 531 2746 243 2259 
L 646 1971 
C 800 2266 979 2400 1184 2400 
C 1587 2400 1875 1811 2451 1811 
z
" transform="scale(0.015625)"/>
      <path id="NotoSansCJKjp-Medium-48" d="M 621 0 
L 1363 0 
L 1363 2144 
L 3379 2144 
L 3379 0 
L 4122 0 
L 4122 4717 
L 3379 4717 
L 3379 2790 
L 1363 2790 
L 1363 4717 
L 621 4717 
L 621 0 
z
" transform="scale(0.015625)"/>
      <path id="NotoSansCJKjp-Medium-7a" d="M 237 0 
L 2963 0 
L 2963 589 
L 1165 589 
L 2899 3130 
L 2899 3526 
L 429 3526 
L 429 2931 
L 1971 2931 
L 237 397 
L 237 0 
z
" transform="scale(0.015625)"/>
     </defs>
     <use xlink:href="#NotoSansCJKjp-Medium-54"/>
     <use xlink:href="#NotoSansCJKjp-Medium-6f" transform="translate(61.099991 0)"/>
     <use xlink:href="#NotoSansCJKjp-Medium-74" transform="translate(122.599976 0)"/>
     <use xlink:href="#NotoSansCJKjp-Medium-61" transform="translate(162.199966 0)"/>
     <use xlink:href="#NotoSansCJKjp-Medium-6c" transform="translate(219.699951 0)"/>
     <use xlink:href="#NotoSansCJKjp-Medium-3a" transform="translate(249.499939 0)"/>
     <use xlink:href="#NotoSansCJKjp-Medium-20" transform="translate(279.299927 0)"/>
     <use xlink:href="#NotoSansCJKjp-Medium-37" transform="translate(301.799911 0)"/>
     <use xlink:href="#NotoSansCJKjp-Medium-2e" transform="translate(358.799896 0)"/>
     <use xlink:href="#NotoSansCJKjp-Medium-37" transform="translate(388.599884 0)"/>
     <use xlink:href="#NotoSansCJKjp-Medium-20" transform="translate(445.599869 0)"/>
     <use xlink:href="#NotoSansCJKjp-Medium-6d" transform="translate(468.099854 0)"/>
     <use xlink:href="#NotoSansCJKjp-Medium-73" transform="translate(562.399841 0)"/>
     <use xlink:href="#NotoSansCJKjp-Medium-20" transform="translate(610.399826 0)"/>
     <use xlink:href="#NotoSansCJKjp-Medium-b7" transform="translate(632.899811 0)"/>
     <use xlink:href="#NotoSansCJKjp-Medium-20" transform="translate(690.299805 0)"/>
     <use xlink:href="#NotoSansCJKjp-Medium-7e" transform="translate(712.799789 0)"/>
     <use xlink:href="#NotoSansCJKjp-Medium-31" transform="translate(769.799774 0)"/>
     <use xlink:href="#NotoSansCJKjp-Medium-33" transform="translate(826.799759 0)"/>
     <use xlink:href="#NotoSansCJKjp-Medium-31" transform="translate(883.799744 0)"/>
     <use xlink:href="#NotoSansCJKjp-Medium-20" transform="translate(940.799728 0)"/>
     <use xlink:href="#NotoSansCJKjp-Medium-48" transform="translate(963.299713 0)"/>
     <use xlink:href="#NotoSansCJKjp-Medium-7a" transform="translate(1037.399704 0)"/>
    </g>
   </g>
   <g id="text_19">
    <!-- (a) Elevation Mapping Pipeline -->
    <g style="fill: #222222" transform="translate(161.223902 315.4025) scale(0.105 -0.105)">
     <defs>
      <path id="NotoSansCJKjp-Medium-28" d="M 1517 -1274 
L 1978 -1069 
C 1427 -154 1178 928 1178 2003 
C 1178 3072 1427 4154 1978 5075 
L 1517 5280 
C 922 4307 570 3264 570 2003 
C 570 730 922 -301 1517 -1274 
z
" transform="scale(0.015625)"/>
      <path id="NotoSansCJKjp-Medium-29" d="M 755 -1274 
C 1357 -301 1709 730 1709 2003 
C 1709 3264 1357 4307 755 5280 
L 294 5075 
C 845 4154 1101 3072 1101 2003 
C 1101 928 845 -154 294 -1069 
L 755 -1274 
z
" transform="scale(0.015625)"/>
      <path id="NotoSansCJKjp-Medium-45" d="M 621 0 
L 3475 0 
L 3475 634 
L 1363 634 
L 1363 2150 
L 3091 2150 
L 3091 2778 
L 1363 2778 
L 1363 4090 
L 3405 4090 
L 3405 4717 
L 621 4717 
L 621 0 
z
" transform="scale(0.015625)"/>
      <path id="NotoSansCJKjp-Medium-65" d="M 2029 -90 
C 2483 -90 2893 70 3213 288 
L 2957 755 
C 2701 589 2432 493 2118 493 
C 1510 493 1088 896 1030 1568 
L 3315 1568 
C 3334 1658 3354 1798 3354 1946 
C 3354 2938 2848 3610 1914 3610 
C 1094 3610 307 2906 307 1760 
C 307 595 1062 -90 2029 -90 
z
M 1024 2080 
C 1094 2694 1485 3027 1926 3027 
C 2438 3027 2714 2682 2714 2080 
L 1024 2080 
z
" transform="scale(0.015625)"/>
      <path id="NotoSansCJKjp-Medium-76" d="M 1325 0 
L 2189 0 
L 3398 3526 
L 2682 3526 
L 2080 1626 
C 1984 1280 1875 922 1773 576 
L 1747 576 
C 1645 922 1542 1280 1440 1626 
L 838 3526 
L 90 3526 
L 1325 0 
z
" transform="scale(0.015625)"/>
      <path id="NotoSansCJKjp-Medium-69" d="M 557 0 
L 1293 0 
L 1293 3526 
L 557 3526 
L 557 0 
z
M 928 4179 
C 1197 4179 1382 4352 1382 4627 
C 1382 4883 1197 5062 928 5062 
C 653 5062 467 4883 467 4627 
C 467 4352 653 4179 928 4179 
z
" transform="scale(0.015625)"/>
      <path id="NotoSansCJKjp-Medium-6e" d="M 557 0 
L 1293 0 
L 1293 2496 
C 1606 2810 1824 2970 2150 2970 
C 2566 2970 2746 2733 2746 2125 
L 2746 0 
L 3482 0 
L 3482 2214 
C 3482 3110 3149 3610 2400 3610 
C 1920 3610 1555 3354 1235 3034 
L 1222 3034 
L 1158 3526 
L 557 3526 
L 557 0 
z
" transform="scale(0.015625)"/>
      <path id="NotoSansCJKjp-Medium-4d" d="M 621 0 
L 1293 0 
L 1293 2330 
C 1293 2752 1235 3360 1190 3789 
L 1216 3789 
L 1594 2701 
L 2419 454 
L 2880 454 
L 3699 2701 
L 4077 3789 
L 4109 3789 
C 4064 3360 4006 2752 4006 2330 
L 4006 0 
L 4698 0 
L 4698 4717 
L 3834 4717 
L 2989 2330 
C 2886 2022 2790 1696 2682 1382 
L 2650 1382 
C 2547 1696 2445 2022 2336 2330 
L 1478 4717 
L 621 4717 
L 621 0 
z
" transform="scale(0.015625)"/>
      <path id="NotoSansCJKjp-Medium-70" d="M 557 -1427 
L 1293 -1427 
L 1293 -288 
L 1274 314 
C 1568 58 1888 -90 2195 -90 
C 2989 -90 3712 608 3712 1818 
C 3712 2906 3213 3610 2323 3610 
C 1926 3610 1542 3392 1235 3136 
L 1222 3136 
L 1158 3526 
L 557 3526 
L 557 -1427 
z
M 2054 531 
C 1843 531 1568 614 1293 845 
L 1293 2566 
C 1587 2848 1850 2995 2125 2995 
C 2714 2995 2950 2541 2950 1805 
C 2950 986 2566 531 2054 531 
z
" transform="scale(0.015625)"/>
      <path id="NotoSansCJKjp-Medium-67" d="M 1766 -1581 
C 2893 -1581 3603 -1030 3603 -346 
C 3603 250 3168 506 2342 506 
L 1690 506 
C 1242 506 1101 646 1101 851 
C 1101 1024 1184 1120 1293 1216 
C 1446 1152 1632 1114 1786 1114 
C 2522 1114 3104 1555 3104 2330 
C 3104 2592 3008 2822 2880 2970 
L 3546 2970 
L 3546 3526 
L 2298 3526 
C 2163 3571 1984 3610 1786 3610 
C 1056 3610 422 3142 422 2349 
C 422 1926 646 1594 890 1408 
L 890 1382 
C 685 1248 493 1011 493 730 
C 493 448 634 262 813 141 
L 813 115 
C 486 -83 301 -358 301 -653 
C 301 -1267 915 -1581 1766 -1581 
z
M 1786 1594 
C 1421 1594 1120 1875 1120 2349 
C 1120 2822 1414 3091 1786 3091 
C 2157 3091 2451 2816 2451 2349 
C 2451 1875 2150 1594 1786 1594 
z
M 1869 -1094 
C 1286 -1094 934 -883 934 -544 
C 934 -365 1018 -186 1229 -32 
C 1376 -70 1536 -83 1702 -83 
L 2234 -83 
C 2656 -83 2886 -173 2886 -467 
C 2886 -794 2483 -1094 1869 -1094 
z
" transform="scale(0.015625)"/>
      <path id="NotoSansCJKjp-Medium-50" d="M 621 0 
L 1363 0 
L 1363 1786 
L 2074 1786 
C 3098 1786 3853 2259 3853 3283 
C 3853 4352 3098 4717 2048 4717 
L 621 4717 
L 621 0 
z
M 1363 2387 
L 1363 4115 
L 1978 4115 
C 2726 4115 3117 3910 3117 3283 
C 3117 2675 2752 2387 2010 2387 
L 1363 2387 
z
" transform="scale(0.015625)"/>
     </defs>
     <use xlink:href="#NotoSansCJKjp-Medium-28"/>
     <use xlink:href="#NotoSansCJKjp-Medium-61" transform="translate(35.599991 0)"/>
     <use xlink:href="#NotoSansCJKjp-Medium-29" transform="translate(93.099976 0)"/>
     <use xlink:href="#NotoSansCJKjp-Medium-20" transform="translate(128.699966 0)"/>
     <use xlink:href="#NotoSansCJKjp-Medium-45" transform="translate(151.199951 0)"/>
     <use xlink:href="#NotoSansCJKjp-Medium-6c" transform="translate(211.199936 0)"/>
     <use xlink:href="#NotoSansCJKjp-Medium-65" transform="translate(240.999924 0)"/>
     <use xlink:href="#NotoSansCJKjp-Medium-76" transform="translate(297.599915 0)"/>
     <use xlink:href="#NotoSansCJKjp-Medium-61" transform="translate(352.099899 0)"/>
     <use xlink:href="#NotoSansCJKjp-Medium-74" transform="translate(409.599884 0)"/>
     <use xlink:href="#NotoSansCJKjp-Medium-69" transform="translate(449.199875 0)"/>
     <use xlink:href="#NotoSansCJKjp-Medium-6f" transform="translate(477.999863 0)"/>
     <use xlink:href="#NotoSansCJKjp-Medium-6e" transform="translate(539.499847 0)"/>
     <use xlink:href="#NotoSansCJKjp-Medium-20" transform="translate(601.899841 0)"/>
     <use xlink:href="#NotoSansCJKjp-Medium-4d" transform="translate(624.399826 0)"/>
     <use xlink:href="#NotoSansCJKjp-Medium-61" transform="translate(707.399811 0)"/>
     <use xlink:href="#NotoSansCJKjp-Medium-70" transform="translate(764.899796 0)"/>
     <use xlink:href="#NotoSansCJKjp-Medium-70" transform="translate(827.89978 0)"/>
     <use xlink:href="#NotoSansCJKjp-Medium-69" transform="translate(890.899765 0)"/>
     <use xlink:href="#NotoSansCJKjp-Medium-6e" transform="translate(919.699753 0)"/>
     <use xlink:href="#NotoSansCJKjp-Medium-67" transform="translate(982.099747 0)"/>
     <use xlink:href="#NotoSansCJKjp-Medium-20" transform="translate(1039.899734 0)"/>
     <use xlink:href="#NotoSansCJKjp-Medium-50" transform="translate(1062.399719 0)"/>
     <use xlink:href="#NotoSansCJKjp-Medium-69" transform="translate(1127.199707 0)"/>
     <use xlink:href="#NotoSansCJKjp-Medium-70" transform="translate(1155.999695 0)"/>
     <use xlink:href="#NotoSansCJKjp-Medium-65" transform="translate(1218.99968 0)"/>
     <use xlink:href="#NotoSansCJKjp-Medium-6c" transform="translate(1275.59967 0)"/>
     <use xlink:href="#NotoSansCJKjp-Medium-69" transform="translate(1305.399658 0)"/>
     <use xlink:href="#NotoSansCJKjp-Medium-6e" transform="translate(1334.199646 0)"/>
     <use xlink:href="#NotoSansCJKjp-Medium-65" transform="translate(1396.59964 0)"/>
    </g>
   </g>
   <g id="line2d_13">
    <path d="M 72.834116 218.276705 
L 72.834116 174.146591 
" clip-path="url(#p02341b449c)" style="fill: none; stroke: #666666; stroke-linecap: square"/>
   </g>
   <g id="line2d_14">
    <path d="M 155.174361 239.249432 
L 155.174361 225.267614 
" clip-path="url(#p02341b449c)" style="fill: none; stroke: #666666; stroke-linecap: square"/>
   </g>
   <g id="line2d_15">
    <path d="M 237.514605 234.880114 
L 237.514605 217.402841 
" clip-path="url(#p02341b449c)" style="fill: none; stroke: #666666; stroke-linecap: square"/>
   </g>
   <g id="line2d_16">
    <path d="M 319.85485 166.281818 
L 319.85485 113.85 
" clip-path="url(#p02341b449c)" style="fill: none; stroke: #666666; stroke-linecap: square"/>
   </g>
   <g id="line2d_17">
    <path d="M 402.195094 231.384659 
L 402.195094 209.975 
" clip-path="url(#p02341b449c)" style="fill: none; stroke: #666666; stroke-linecap: square"/>
   </g>
   <g id="PathCollection_1">
    <defs>
     <path id="mb9075c66f4" d="M 0 2.12132 
C 0.562581 2.12132 1.102195 1.897805 1.5 1.5 
C 1.897805 1.102195 2.12132 0.562581 2.12132 0 
C 2.12132 -0.562581 1.897805 -1.102195 1.5 -1.5 
C 1.102195 -1.897805 0.562581 -2.12132 0 -2.12132 
C -0.562581 -2.12132 -1.102195 -1.897805 -1.5 -1.5 
C -1.897805 -1.102195 -2.12132 -0.562581 -2.12132 0 
C -2.12132 0.562581 -1.897805 1.102195 -1.5 1.5 
C -1.102195 1.897805 -0.562581 2.12132 0 2.12132 
z
" style="stroke: #666666"/>
    </defs>
    <g clip-path="url(#p02341b449c)">
     <use xlink:href="#mb9075c66f4" x="72.834116" y="218.276705" style="fill: #ffffff; stroke: #666666"/>
     <use xlink:href="#mb9075c66f4" x="72.834116" y="174.146591" style="fill: #ffffff; stroke: #666666"/>
    </g>
   </g>
   <g id="PathCollection_2">
    <g clip-path="url(#p02341b449c)">
     <use xlink:href="#mb9075c66f4" x="155.174361" y="239.249432" style="fill: #ffffff; stroke: #666666"/>
     <use xlink:href="#mb9075c66f4" x="155.174361" y="225.267614" style="fill: #ffffff; stroke: #666666"/>
    </g>
   </g>
   <g id="PathCollection_3">
    <g clip-path="url(#p02341b449c)">
     <use xlink:href="#mb9075c66f4" x="237.514605" y="234.880114" style="fill: #ffffff; stroke: #666666"/>
     <use xlink:href="#mb9075c66f4" x="237.514605" y="217.402841" style="fill: #ffffff; stroke: #666666"/>
    </g>
   </g>
   <g id="PathCollection_4">
    <g clip-path="url(#p02341b449c)">
     <use xlink:href="#mb9075c66f4" x="319.85485" y="166.281818" style="fill: #ffffff; stroke: #666666"/>
     <use xlink:href="#mb9075c66f4" x="319.85485" y="113.85" style="fill: #ffffff; stroke: #666666"/>
    </g>
   </g>
   <g id="PathCollection_5">
    <g clip-path="url(#p02341b449c)">
     <use xlink:href="#mb9075c66f4" x="402.195094" y="231.384659" style="fill: #ffffff; stroke: #666666"/>
     <use xlink:href="#mb9075c66f4" x="402.195094" y="209.975" style="fill: #ffffff; stroke: #666666"/>
    </g>
   </g>
  </g>
  <g id="axes_2">
   <g id="patch_9">
    <path d="M 483.581711 267.65 
L 850.4075 267.65 
L 850.4075 44.64 
L 483.581711 44.64 
z
" style="fill: #ffffff"/>
   </g>
   <g id="matplotlib.axis_3">
    <g id="xtick_6">
     <g id="text_20">
      <!-- Elevation -->
      <g transform="translate(501.265915 281.0175) scale(0.08 -0.08)">
       <defs>
        <path id="NotoSansCJKjp-Regular-45" d="M 646 0 
L 3418 0 
L 3418 506 
L 1235 506 
L 1235 2214 
L 3014 2214 
L 3014 2720 
L 1235 2720 
L 1235 4192 
L 3347 4192 
L 3347 4691 
L 646 4691 
L 646 0 
z
" transform="scale(0.015625)"/>
       </defs>
       <use xlink:href="#NotoSansCJKjp-Regular-45"/>
       <use xlink:href="#NotoSansCJKjp-Regular-6c" transform="translate(58.899994 0)"/>
       <use xlink:href="#NotoSansCJKjp-Regular-65" transform="translate(87.299988 0)"/>
       <use xlink:href="#NotoSansCJKjp-Regular-76" transform="translate(142.699982 0)"/>
       <use xlink:href="#NotoSansCJKjp-Regular-61" transform="translate(194.799973 0)"/>
       <use xlink:href="#NotoSansCJKjp-Regular-74" transform="translate(251.09996 0)"/>
       <use xlink:href="#NotoSansCJKjp-Regular-69" transform="translate(288.799957 0)"/>
       <use xlink:href="#NotoSansCJKjp-Regular-6f" transform="translate(316.299942 0)"/>
       <use xlink:href="#NotoSansCJKjp-Regular-6e" transform="translate(376.899933 0)"/>
      </g>
      <!-- Mapping -->
      <g transform="translate(502.525915 290.491) scale(0.08 -0.08)">
       <defs>
        <path id="NotoSansCJKjp-Regular-67" d="M 1760 -1600 
C 2835 -1600 3520 -1043 3520 -397 
C 3520 179 3110 429 2310 429 
L 1626 429 
C 1158 429 1018 589 1018 806 
C 1018 998 1114 1114 1242 1222 
C 1395 1146 1587 1101 1754 1101 
C 2470 1101 3027 1568 3027 2310 
C 3027 2611 2912 2867 2746 3027 
L 3456 3027 
L 3456 3475 
L 2246 3475 
C 2125 3526 1952 3565 1754 3565 
C 1056 3565 454 3085 454 2323 
C 454 1907 678 1568 909 1389 
L 909 1363 
C 723 1235 525 1005 525 717 
C 525 442 659 256 838 147 
L 838 115 
C 512 -83 326 -371 326 -672 
C 326 -1267 915 -1600 1760 -1600 
z
M 1754 1498 
C 1357 1498 1018 1818 1018 2323 
C 1018 2835 1350 3136 1754 3136 
C 2170 3136 2496 2835 2496 2323 
C 2496 1818 2157 1498 1754 1498 
z
M 1843 -1197 
C 1210 -1197 838 -960 838 -589 
C 838 -390 941 -179 1190 0 
C 1344 -38 1510 -51 1638 -51 
L 2240 -51 
C 2701 -51 2944 -166 2944 -493 
C 2944 -851 2515 -1197 1843 -1197 
z
" transform="scale(0.015625)"/>
       </defs>
       <use xlink:href="#NotoSansCJKjp-Regular-4d"/>
       <use xlink:href="#NotoSansCJKjp-Regular-61" transform="translate(81.199982 0)"/>
       <use xlink:href="#NotoSansCJKjp-Regular-70" transform="translate(137.499969 0)"/>
       <use xlink:href="#NotoSansCJKjp-Regular-70" transform="translate(199.499954 0)"/>
       <use xlink:href="#NotoSansCJKjp-Regular-69" transform="translate(261.499939 0)"/>
       <use xlink:href="#NotoSansCJKjp-Regular-6e" transform="translate(288.999924 0)"/>
       <use xlink:href="#NotoSansCJKjp-Regular-67" transform="translate(349.999908 0)"/>
      </g>
     </g>
    </g>
    <g id="xtick_7">
     <g id="text_21">
      <!-- Uncertainty -->
      <g transform="translate(570.864635 280.9775) scale(0.08 -0.08)">
       <defs>
        <path id="NotoSansCJKjp-Regular-79" d="M 646 -1498 
C 1338 -1498 1702 -973 1946 -294 
L 3251 3475 
L 2682 3475 
L 2054 1549 
C 1965 1235 1862 883 1773 563 
L 1741 563 
C 1619 890 1504 1242 1395 1549 
L 691 3475 
L 83 3475 
L 1478 -6 
L 1402 -269 
C 1254 -698 1011 -1018 621 -1018 
C 525 -1018 422 -986 352 -960 
L 237 -1427 
C 346 -1472 486 -1498 646 -1498 
z
" transform="scale(0.015625)"/>
       </defs>
       <use xlink:href="#NotoSansCJKjp-Regular-55"/>
       <use xlink:href="#NotoSansCJKjp-Regular-6e" transform="translate(72.099991 0)"/>
       <use xlink:href="#NotoSansCJKjp-Regular-63" transform="translate(133.099976 0)"/>
       <use xlink:href="#NotoSansCJKjp-Regular-65" transform="translate(184.09996 0)"/>
       <use xlink:href="#NotoSansCJKjp-Regular-72" transform="translate(239.499954 0)"/>
       <use xlink:href="#NotoSansCJKjp-Regular-74" transform="translate(278.299942 0)"/>
       <use xlink:href="#NotoSansCJKjp-Regular-61" transform="translate(315.999939 0)"/>
       <use xlink:href="#NotoSansCJKjp-Regular-69" transform="translate(372.299927 0)"/>
       <use xlink:href="#NotoSansCJKjp-Regular-6e" transform="translate(399.799911 0)"/>
       <use xlink:href="#NotoSansCJKjp-Regular-74" transform="translate(460.799896 0)"/>
       <use xlink:href="#NotoSansCJKjp-Regular-79" transform="translate(498.499893 0)"/>
      </g>
      <!-- Fusion -->
      <g transform="translate(580.41651 290.491) scale(0.08 -0.08)">
       <defs>
        <path id="NotoSansCJKjp-Regular-75" d="M 1606 -83 
C 2080 -83 2426 166 2752 544 
L 2771 544 
L 2816 0 
L 3302 0 
L 3302 3475 
L 2720 3475 
L 2720 1011 
C 2387 602 2138 422 1779 422 
C 1318 422 1126 698 1126 1344 
L 1126 3475 
L 538 3475 
L 538 1274 
C 538 384 870 -83 1606 -83 
z
" transform="scale(0.015625)"/>
       </defs>
       <use xlink:href="#NotoSansCJKjp-Regular-46"/>
       <use xlink:href="#NotoSansCJKjp-Regular-75" transform="translate(55.199997 0)"/>
       <use xlink:href="#NotoSansCJKjp-Regular-73" transform="translate(115.899994 0)"/>
       <use xlink:href="#NotoSansCJKjp-Regular-69" transform="translate(162.699982 0)"/>
       <use xlink:href="#NotoSansCJKjp-Regular-6f" transform="translate(190.199966 0)"/>
       <use xlink:href="#NotoSansCJKjp-Regular-6e" transform="translate(250.799957 0)"/>
      </g>
     </g>
    </g>
    <g id="xtick_8">
     <g id="text_22">
      <!-- Raycasting -->
      <g transform="translate(646.650855 280.85) scale(0.08 -0.08)">
       <use xlink:href="#NotoSansCJKjp-Regular-52"/>
       <use xlink:href="#NotoSansCJKjp-Regular-61" transform="translate(63.499985 0)"/>
       <use xlink:href="#NotoSansCJKjp-Regular-79" transform="translate(119.799973 0)"/>
       <use xlink:href="#NotoSansCJKjp-Regular-63" transform="translate(171.899963 0)"/>
       <use xlink:href="#NotoSansCJKjp-Regular-61" transform="translate(222.899948 0)"/>
       <use xlink:href="#NotoSansCJKjp-Regular-73" transform="translate(279.199936 0)"/>
       <use xlink:href="#NotoSansCJKjp-Regular-74" transform="translate(325.999924 0)"/>
       <use xlink:href="#NotoSansCJKjp-Regular-69" transform="translate(363.699921 0)"/>
       <use xlink:href="#NotoSansCJKjp-Regular-6e" transform="translate(391.199905 0)"/>
       <use xlink:href="#NotoSansCJKjp-Regular-67" transform="translate(452.19989 0)"/>
      </g>
     </g>
    </g>
    <g id="xtick_9">
     <g id="text_23">
      <!-- Spike -->
      <g transform="translate(730.7127 281.0175) scale(0.08 -0.08)">
       <defs>
        <path id="NotoSansCJKjp-Regular-6b" d="M 589 0 
L 1165 0 
L 1165 915 
L 1818 1677 
L 2835 0 
L 3469 0 
L 2157 2074 
L 3315 3475 
L 2662 3475 
L 1190 1645 
L 1165 1645 
L 1165 5094 
L 589 5094 
L 589 0 
z
" transform="scale(0.015625)"/>
       </defs>
       <use xlink:href="#NotoSansCJKjp-Regular-53"/>
       <use xlink:href="#NotoSansCJKjp-Regular-70" transform="translate(59.599991 0)"/>
       <use xlink:href="#NotoSansCJKjp-Regular-69" transform="translate(121.599976 0)"/>
       <use xlink:href="#NotoSansCJKjp-Regular-6b" transform="translate(149.09996 0)"/>
       <use xlink:href="#NotoSansCJKjp-Regular-65" transform="translate(204.299957 0)"/>
      </g>
      <!-- Removal -->
      <g transform="translate(724.7452 290.491) scale(0.08 -0.08)">
       <use xlink:href="#NotoSansCJKjp-Regular-52"/>
       <use xlink:href="#NotoSansCJKjp-Regular-65" transform="translate(63.499985 0)"/>
       <use xlink:href="#NotoSansCJKjp-Regular-6d" transform="translate(118.899979 0)"/>
       <use xlink:href="#NotoSansCJKjp-Regular-6f" transform="translate(211.499969 0)"/>
       <use xlink:href="#NotoSansCJKjp-Regular-76" transform="translate(272.09996 0)"/>
       <use xlink:href="#NotoSansCJKjp-Regular-61" transform="translate(324.199951 0)"/>
       <use xlink:href="#NotoSansCJKjp-Regular-6c" transform="translate(380.499939 0)"/>
      </g>
     </g>
    </g>
    <g id="xtick_10">
     <g id="text_24">
      <!-- Inpainting -->
      <g transform="translate(796.01892 280.85) scale(0.08 -0.08)">
       <defs>
        <path id="NotoSansCJKjp-Regular-49" d="M 646 0 
L 1235 0 
L 1235 4691 
L 646 4691 
L 646 0 
z
" transform="scale(0.015625)"/>
       </defs>
       <use xlink:href="#NotoSansCJKjp-Regular-49"/>
       <use xlink:href="#NotoSansCJKjp-Regular-6e" transform="translate(29.299988 0)"/>
       <use xlink:href="#NotoSansCJKjp-Regular-70" transform="translate(90.299973 0)"/>
       <use xlink:href="#NotoSansCJKjp-Regular-61" transform="translate(152.299957 0)"/>
       <use xlink:href="#NotoSansCJKjp-Regular-69" transform="translate(208.599945 0)"/>
       <use xlink:href="#NotoSansCJKjp-Regular-6e" transform="translate(236.09993 0)"/>
       <use xlink:href="#NotoSansCJKjp-Regular-74" transform="translate(297.099915 0)"/>
       <use xlink:href="#NotoSansCJKjp-Regular-69" transform="translate(334.799911 0)"/>
       <use xlink:href="#NotoSansCJKjp-Regular-6e" transform="translate(362.299896 0)"/>
       <use xlink:href="#NotoSansCJKjp-Regular-67" transform="translate(423.299881 0)"/>
      </g>
     </g>
    </g>
   </g>
   <g id="matplotlib.axis_4">
    <g id="ytick_7">
     <g id="line2d_18">
      <path d="M 483.581711 267.65 
L 850.4075 267.65 
" clip-path="url(#p6e5f3fb562)" style="fill: none; stroke: #000000; stroke-opacity: 0.1; stroke-width: 0.6; stroke-linecap: square"/>
     </g>
     <g id="line2d_19">
      <g>
       <use xlink:href="#m3679cad684" x="483.581711" y="267.65" style="stroke: #000000; stroke-width: 0.8"/>
      </g>
     </g>
     <g id="text_25">
      <!-- 0 -->
      <g transform="translate(471.309211 271.430703) scale(0.095 -0.095)">
       <use xlink:href="#NotoSansCJKjp-Regular-30"/>
      </g>
     </g>
    </g>
    <g id="ytick_8">
     <g id="line2d_20">
      <path d="M 483.581711 222.387163 
L 850.4075 222.387163 
" clip-path="url(#p6e5f3fb562)" style="fill: none; stroke: #000000; stroke-opacity: 0.1; stroke-width: 0.6; stroke-linecap: square"/>
     </g>
     <g id="line2d_21">
      <g>
       <use xlink:href="#m3679cad684" x="483.581711" y="222.387163" style="stroke: #000000; stroke-width: 0.8"/>
      </g>
     </g>
     <g id="text_26">
      <!-- 5 -->
      <g transform="translate(471.309211 226.167866) scale(0.095 -0.095)">
       <use xlink:href="#NotoSansCJKjp-Regular-35"/>
      </g>
     </g>
    </g>
    <g id="ytick_9">
     <g id="line2d_22">
      <path d="M 483.581711 177.124325 
L 850.4075 177.124325 
" clip-path="url(#p6e5f3fb562)" style="fill: none; stroke: #000000; stroke-opacity: 0.1; stroke-width: 0.6; stroke-linecap: square"/>
     </g>
     <g id="line2d_23">
      <g>
       <use xlink:href="#m3679cad684" x="483.581711" y="177.124325" style="stroke: #000000; stroke-width: 0.8"/>
      </g>
     </g>
     <g id="text_27">
      <!-- 10 -->
      <g transform="translate(466.036711 180.905028) scale(0.095 -0.095)">
       <use xlink:href="#NotoSansCJKjp-Regular-31"/>
       <use xlink:href="#NotoSansCJKjp-Regular-30" transform="translate(55.499985 0)"/>
      </g>
     </g>
    </g>
    <g id="ytick_10">
     <g id="line2d_24">
      <path d="M 483.581711 131.861488 
L 850.4075 131.861488 
" clip-path="url(#p6e5f3fb562)" style="fill: none; stroke: #000000; stroke-opacity: 0.1; stroke-width: 0.6; stroke-linecap: square"/>
     </g>
     <g id="line2d_25">
      <g>
       <use xlink:href="#m3679cad684" x="483.581711" y="131.861488" style="stroke: #000000; stroke-width: 0.8"/>
      </g>
     </g>
     <g id="text_28">
      <!-- 15 -->
      <g transform="translate(466.036711 135.642191) scale(0.095 -0.095)">
       <use xlink:href="#NotoSansCJKjp-Regular-31"/>
       <use xlink:href="#NotoSansCJKjp-Regular-35" transform="translate(55.499985 0)"/>
      </g>
     </g>
    </g>
    <g id="ytick_11">
     <g id="line2d_26">
      <path d="M 483.581711 86.59865 
L 850.4075 86.59865 
" clip-path="url(#p6e5f3fb562)" style="fill: none; stroke: #000000; stroke-opacity: 0.1; stroke-width: 0.6; stroke-linecap: square"/>
     </g>
     <g id="line2d_27">
      <g>
       <use xlink:href="#m3679cad684" x="483.581711" y="86.59865" style="stroke: #000000; stroke-width: 0.8"/>
      </g>
     </g>
     <g id="text_29">
      <!-- 20 -->
      <g transform="translate(466.036711 90.379353) scale(0.095 -0.095)">
       <use xlink:href="#NotoSansCJKjp-Regular-32"/>
       <use xlink:href="#NotoSansCJKjp-Regular-30" transform="translate(55.499985 0)"/>
      </g>
     </g>
    </g>
    <g id="text_30">
     <!-- Time (ms) -->
     <g style="fill: #555555" transform="translate(459.746086 179.384844) rotate(-90) scale(0.1 -0.1)">
      <use xlink:href="#NotoSansCJKjp-Regular-54"/>
      <use xlink:href="#NotoSansCJKjp-Regular-69" transform="translate(59.899994 0)"/>
      <use xlink:href="#NotoSansCJKjp-Regular-6d" transform="translate(87.399979 0)"/>
      <use xlink:href="#NotoSansCJKjp-Regular-65" transform="translate(179.999969 0)"/>
      <use xlink:href="#NotoSansCJKjp-Regular-20" transform="translate(235.399963 0)"/>
      <use xlink:href="#NotoSansCJKjp-Regular-28" transform="translate(257.799957 0)"/>
      <use xlink:href="#NotoSansCJKjp-Regular-6d" transform="translate(291.599945 0)"/>
      <use xlink:href="#NotoSansCJKjp-Regular-73" transform="translate(384.199936 0)"/>
      <use xlink:href="#NotoSansCJKjp-Regular-29" transform="translate(430.999924 0)"/>
     </g>
    </g>
   </g>
   <g id="patch_10">
    <path d="M 500.25561 267.65 
L 537.30872 267.65 
L 537.30872 253.346943 
L 500.25561 253.346943 
z
" clip-path="url(#p6e5f3fb562)" style="fill: #b5d7ed; stroke: #ffffff; stroke-width: 0.5; stroke-linejoin: miter"/>
   </g>
   <g id="patch_11">
    <path d="M 500.25561 253.346943 
L 537.30872 253.346943 
L 537.30872 245.652261 
L 500.25561 245.652261 
z
" clip-path="url(#p6e5f3fb562)" style="fill: #93c5e3; stroke: #ffffff; stroke-width: 0.5; stroke-linejoin: miter"/>
   </g>
   <g id="patch_12">
    <path d="M 500.25561 245.652261 
L 537.30872 245.652261 
L 537.30872 236.418642 
L 500.25561 236.418642 
z
" clip-path="url(#p6e5f3fb562)" style="fill: #6bb1d9; stroke: #ffffff; stroke-width: 0.5; stroke-linejoin: miter"/>
   </g>
   <g id="patch_13">
    <path d="M 500.25561 236.418642 
L 537.30872 236.418642 
L 537.30872 208.084106 
L 500.25561 208.084106 
z
" clip-path="url(#p6e5f3fb562)" style="fill: #4a9cce; stroke: #ffffff; stroke-width: 0.5; stroke-linejoin: miter"/>
   </g>
   <g id="patch_14">
    <path d="M 500.25561 208.084106 
L 537.30872 208.084106 
L 537.30872 198.307333 
L 500.25561 198.307333 
z
" clip-path="url(#p6e5f3fb562)" style="fill: #3088c0; stroke: #ffffff; stroke-width: 0.5; stroke-linejoin: miter"/>
   </g>
   <g id="patch_15">
    <path d="M 574.36183 267.65 
L 611.41494 267.65 
L 611.41494 128.240461 
L 574.36183 128.240461 
z
" clip-path="url(#p6e5f3fb562)" style="fill: #c4937a"/>
   </g>
   <g id="patch_16">
    <path d="M 648.46805 267.65 
L 685.52116 267.65 
L 685.52116 111.31216 
L 648.46805 111.31216 
z
" clip-path="url(#p6e5f3fb562)" style="fill: #b0a090"/>
   </g>
   <g id="patch_17">
    <path d="M 722.57427 267.65 
L 759.62738 267.65 
L 759.62738 214.0588 
L 722.57427 214.0588 
z
" clip-path="url(#p6e5f3fb562)" style="fill: #a8967e"/>
   </g>
   <g id="patch_18">
    <path d="M 796.68049 267.65 
L 833.7336 267.65 
L 833.7336 249.182762 
L 796.68049 249.182762 
z
" clip-path="url(#p6e5f3fb562)" style="fill: #9aaa94"/>
   </g>
   <g id="text_31">
    <!-- 7.7 -->
    <g style="fill: #444444" transform="translate(512.670798 193.696328) scale(0.085 -0.085)">
     <use xlink:href="#NotoSansCJKjp-Medium-37"/>
     <use xlink:href="#NotoSansCJKjp-Medium-2e" transform="translate(56.999985 0)"/>
     <use xlink:href="#NotoSansCJKjp-Medium-37" transform="translate(86.799973 0)"/>
    </g>
   </g>
   <g id="text_32">
    <!-- 15.4 -->
    <g style="fill: #444444" transform="translate(584.354518 97.739113) scale(0.085 -0.085)">
     <defs>
      <path id="NotoSansCJKjp-Medium-34" d="M 2170 0 
L 2861 0 
L 2861 1267 
L 3456 1267 
L 3456 1843 
L 2861 1843 
L 2861 4717 
L 2003 4717 
L 128 1760 
L 128 1267 
L 2170 1267 
L 2170 0 
z
M 2170 1843 
L 877 1843 
L 1798 3258 
C 1933 3501 2061 3744 2176 3987 
L 2202 3987 
C 2189 3725 2170 3328 2170 3072 
L 2170 1843 
z
" transform="scale(0.015625)"/>
     </defs>
     <use xlink:href="#NotoSansCJKjp-Medium-31"/>
     <use xlink:href="#NotoSansCJKjp-Medium-35" transform="translate(56.999985 0)"/>
     <use xlink:href="#NotoSansCJKjp-Medium-2e" transform="translate(113.999969 0)"/>
     <use xlink:href="#NotoSansCJKjp-Medium-34" transform="translate(143.799957 0)"/>
    </g>
   </g>
   <g id="text_33">
    <!-- 17.3 -->
    <g style="fill: #444444" transform="translate(658.460738 90.587585) scale(0.085 -0.085)">
     <use xlink:href="#NotoSansCJKjp-Medium-31"/>
     <use xlink:href="#NotoSansCJKjp-Medium-37" transform="translate(56.999985 0)"/>
     <use xlink:href="#NotoSansCJKjp-Medium-2e" transform="translate(113.999969 0)"/>
     <use xlink:href="#NotoSansCJKjp-Medium-33" transform="translate(143.799957 0)"/>
    </g>
   </g>
   <g id="text_34">
    <!-- 5.9 -->
    <g style="fill: #444444" transform="translate(734.989458 203.020473) scale(0.085 -0.085)">
     <defs>
      <path id="NotoSansCJKjp-Medium-39" d="M 1562 -90 
C 2464 -90 3309 666 3309 2515 
C 3309 4077 2579 4800 1677 4800 
C 915 4800 269 4186 269 3251 
C 269 2266 806 1766 1594 1766 
C 1952 1766 2349 1978 2618 2310 
C 2579 979 2099 525 1523 525 
C 1229 525 941 659 755 877 
L 352 416 
C 627 134 1011 -90 1562 -90 
z
M 2611 2880 
C 2342 2470 2010 2304 1722 2304 
C 1229 2304 960 2656 960 3251 
C 960 3866 1280 4230 1690 4230 
C 2195 4230 2541 3808 2611 2880 
z
" transform="scale(0.015625)"/>
     </defs>
     <use xlink:href="#NotoSansCJKjp-Medium-35"/>
     <use xlink:href="#NotoSansCJKjp-Medium-2e" transform="translate(56.999985 0)"/>
     <use xlink:href="#NotoSansCJKjp-Medium-39" transform="translate(86.799973 0)"/>
    </g>
   </g>
   <g id="text_35">
    <!-- 2.0 -->
    <g style="fill: #444444" transform="translate(809.095678 239.954948) scale(0.085 -0.085)">
     <use xlink:href="#NotoSansCJKjp-Medium-32"/>
     <use xlink:href="#NotoSansCJKjp-Medium-2e" transform="translate(56.999985 0)"/>
     <use xlink:href="#NotoSansCJKjp-Medium-30" transform="translate(86.799973 0)"/>
    </g>
   </g>
   <g id="text_36">
    <g id="patch_19">
     <path d="M 730.755851 68.9905 
L 839.402726 68.9905 
Q 842.402726 68.9905 842.402726 65.9905 
L 842.402726 55.7905 
Q 842.402726 52.7905 839.402726 52.7905 
L 730.755851 52.7905 
Q 727.755851 52.7905 727.755851 55.7905 
L 727.755851 65.9905 
Q 727.755851 68.9905 730.755851 68.9905 
z
" style="fill: #f7f7f7; stroke: #dddddd; stroke-width: 0.8; stroke-linejoin: miter"/>
    </g>
    <!-- Total: 48.3 ms · ~21 Hz -->
    <g style="fill: #444444" transform="translate(730.755851 63.760813) scale(0.1 -0.1)">
     <use xlink:href="#NotoSansCJKjp-Medium-54"/>
     <use xlink:href="#NotoSansCJKjp-Medium-6f" transform="translate(61.099991 0)"/>
     <use xlink:href="#NotoSansCJKjp-Medium-74" transform="translate(122.599976 0)"/>
     <use xlink:href="#NotoSansCJKjp-Medium-61" transform="translate(162.199966 0)"/>
     <use xlink:href="#NotoSansCJKjp-Medium-6c" transform="translate(219.699951 0)"/>
     <use xlink:href="#NotoSansCJKjp-Medium-3a" transform="translate(249.499939 0)"/>
     <use xlink:href="#NotoSansCJKjp-Medium-20" transform="translate(279.299927 0)"/>
     <use xlink:href="#NotoSansCJKjp-Medium-34" transform="translate(301.799911 0)"/>
     <use xlink:href="#NotoSansCJKjp-Medium-38" transform="translate(358.799896 0)"/>
     <use xlink:href="#NotoSansCJKjp-Medium-2e" transform="translate(415.799881 0)"/>
     <use xlink:href="#NotoSansCJKjp-Medium-33" transform="translate(445.599869 0)"/>
     <use xlink:href="#NotoSansCJKjp-Medium-20" transform="translate(502.599854 0)"/>
     <use xlink:href="#NotoSansCJKjp-Medium-6d" transform="translate(525.099838 0)"/>
     <use xlink:href="#NotoSansCJKjp-Medium-73" transform="translate(619.399826 0)"/>
     <use xlink:href="#NotoSansCJKjp-Medium-20" transform="translate(667.399811 0)"/>
     <use xlink:href="#NotoSansCJKjp-Medium-b7" transform="translate(689.899796 0)"/>
     <use xlink:href="#NotoSansCJKjp-Medium-20" transform="translate(747.299789 0)"/>
     <use xlink:href="#NotoSansCJKjp-Medium-7e" transform="translate(769.799774 0)"/>
     <use xlink:href="#NotoSansCJKjp-Medium-32" transform="translate(826.799759 0)"/>
     <use xlink:href="#NotoSansCJKjp-Medium-31" transform="translate(883.799744 0)"/>
     <use xlink:href="#NotoSansCJKjp-Medium-20" transform="translate(940.799728 0)"/>
     <use xlink:href="#NotoSansCJKjp-Medium-48" transform="translate(963.299713 0)"/>
     <use xlink:href="#NotoSansCJKjp-Medium-7a" transform="translate(1037.399704 0)"/>
    </g>
   </g>
   <g id="text_37">
    <!-- (b) Elevation Mapping + Post-processing -->
    <g style="fill: #222222" transform="translate(566.426754 315.4025) scale(0.105 -0.105)">
     <defs>
      <path id="NotoSansCJKjp-Medium-62" d="M 2195 -90 
C 2989 -90 3712 608 3712 1818 
C 3712 2906 3206 3610 2317 3610 
C 1946 3610 1574 3418 1267 3149 
L 1293 3750 
L 1293 5101 
L 557 5101 
L 557 0 
L 1139 0 
L 1203 365 
L 1229 365 
C 1523 77 1875 -90 2195 -90 
z
M 2054 531 
C 1843 531 1562 614 1293 845 
L 1293 2566 
C 1581 2848 1850 2995 2125 2995 
C 2714 2995 2950 2541 2950 1805 
C 2950 986 2566 531 2054 531 
z
" transform="scale(0.015625)"/>
      <path id="NotoSansCJKjp-Medium-2b" d="M 1536 723 
L 2106 723 
L 2106 2106 
L 3405 2106 
L 3405 2643 
L 2106 2643 
L 2106 4032 
L 1536 4032 
L 1536 2643 
L 243 2643 
L 243 2106 
L 1536 2106 
L 1536 723 
z
" transform="scale(0.015625)"/>
      <path id="NotoSansCJKjp-Medium-2d" d="M 301 1536 
L 1990 1536 
L 1990 2080 
L 301 2080 
L 301 1536 
z
" transform="scale(0.015625)"/>
      <path id="NotoSansCJKjp-Medium-72" d="M 557 0 
L 1293 0 
L 1293 2189 
C 1510 2752 1856 2950 2144 2950 
C 2291 2950 2374 2931 2502 2893 
L 2630 3539 
C 2522 3584 2413 3610 2240 3610 
C 1856 3610 1485 3341 1235 2893 
L 1222 2893 
L 1158 3526 
L 557 3526 
L 557 0 
z
" transform="scale(0.015625)"/>
      <path id="NotoSansCJKjp-Medium-63" d="M 1990 -90 
C 2394 -90 2810 64 3136 352 
L 2829 845 
C 2618 659 2355 525 2061 525 
C 1478 525 1069 1011 1069 1760 
C 1069 2502 1491 3002 2086 3002 
C 2323 3002 2522 2893 2714 2726 
L 3078 3206 
C 2822 3430 2496 3610 2048 3610 
C 1120 3610 307 2931 307 1760 
C 307 589 1037 -90 1990 -90 
z
" transform="scale(0.015625)"/>
     </defs>
     <use xlink:href="#NotoSansCJKjp-Medium-28"/>
     <use xlink:href="#NotoSansCJKjp-Medium-62" transform="translate(35.599991 0)"/>
     <use xlink:href="#NotoSansCJKjp-Medium-29" transform="translate(98.499985 0)"/>
     <use xlink:href="#NotoSansCJKjp-Medium-20" transform="translate(134.099976 0)"/>
     <use xlink:href="#NotoSansCJKjp-Medium-45" transform="translate(156.59996 0)"/>
     <use xlink:href="#NotoSansCJKjp-Medium-6c" transform="translate(216.599945 0)"/>
     <use xlink:href="#NotoSansCJKjp-Medium-65" transform="translate(246.399933 0)"/>
     <use xlink:href="#NotoSansCJKjp-Medium-76" transform="translate(302.999924 0)"/>
     <use xlink:href="#NotoSansCJKjp-Medium-61" transform="translate(357.499908 0)"/>
     <use xlink:href="#NotoSansCJKjp-Medium-74" transform="translate(414.999893 0)"/>
     <use xlink:href="#NotoSansCJKjp-Medium-69" transform="translate(454.599884 0)"/>
     <use xlink:href="#NotoSansCJKjp-Medium-6f" transform="translate(483.399872 0)"/>
     <use xlink:href="#NotoSansCJKjp-Medium-6e" transform="translate(544.899857 0)"/>
     <use xlink:href="#NotoSansCJKjp-Medium-20" transform="translate(607.29985 0)"/>
     <use xlink:href="#NotoSansCJKjp-Medium-4d" transform="translate(629.799835 0)"/>
     <use xlink:href="#NotoSansCJKjp-Medium-61" transform="translate(712.79982 0)"/>
     <use xlink:href="#NotoSansCJKjp-Medium-70" transform="translate(770.299805 0)"/>
     <use xlink:href="#NotoSansCJKjp-Medium-70" transform="translate(833.299789 0)"/>
     <use xlink:href="#NotoSansCJKjp-Medium-69" transform="translate(896.299774 0)"/>
     <use xlink:href="#NotoSansCJKjp-Medium-6e" transform="translate(925.099762 0)"/>
     <use xlink:href="#NotoSansCJKjp-Medium-67" transform="translate(987.499756 0)"/>
     <use xlink:href="#NotoSansCJKjp-Medium-20" transform="translate(1045.299744 0)"/>
     <use xlink:href="#NotoSansCJKjp-Medium-2b" transform="translate(1067.799728 0)"/>
     <use xlink:href="#NotoSansCJKjp-Medium-20" transform="translate(1124.799713 0)"/>
     <use xlink:href="#NotoSansCJKjp-Medium-50" transform="translate(1147.299698 0)"/>
     <use xlink:href="#NotoSansCJKjp-Medium-6f" transform="translate(1212.099686 0)"/>
     <use xlink:href="#NotoSansCJKjp-Medium-73" transform="translate(1273.59967 0)"/>
     <use xlink:href="#NotoSansCJKjp-Medium-74" transform="translate(1321.599655 0)"/>
     <use xlink:href="#NotoSansCJKjp-Medium-2d" transform="translate(1361.199646 0)"/>
     <use xlink:href="#NotoSansCJKjp-Medium-70" transform="translate(1396.899643 0)"/>
     <use xlink:href="#NotoSansCJKjp-Medium-72" transform="translate(1459.899628 0)"/>
     <use xlink:href="#NotoSansCJKjp-Medium-6f" transform="translate(1500.799622 0)"/>
     <use xlink:href="#NotoSansCJKjp-Medium-63" transform="translate(1562.299606 0)"/>
     <use xlink:href="#NotoSansCJKjp-Medium-65" transform="translate(1613.999603 0)"/>
     <use xlink:href="#NotoSansCJKjp-Medium-73" transform="translate(1670.599594 0)"/>
     <use xlink:href="#NotoSansCJKjp-Medium-73" transform="translate(1718.599579 0)"/>
     <use xlink:href="#NotoSansCJKjp-Medium-69" transform="translate(1766.599564 0)"/>
     <use xlink:href="#NotoSansCJKjp-Medium-6e" transform="translate(1795.399551 0)"/>
     <use xlink:href="#NotoSansCJKjp-Medium-67" transform="translate(1857.799545 0)"/>
    </g>
   </g>
   <g id="line2d_28">
    <path d="M 592.888385 203.467297 
L 592.888385 103.255374 
" clip-path="url(#p6e5f3fb562)" style="fill: none; stroke: #666666; stroke-linecap: square"/>
   </g>
   <g id="line2d_29">
    <path d="M 666.994605 146.074019 
L 666.994605 96.103846 
" clip-path="url(#p6e5f3fb562)" style="fill: none; stroke: #666666; stroke-linecap: square"/>
   </g>
   <g id="line2d_30">
    <path d="M 741.100825 224.559779 
L 741.100825 208.536734 
" clip-path="url(#p6e5f3fb562)" style="fill: none; stroke: #666666; stroke-linecap: square"/>
   </g>
   <g id="line2d_31">
    <path d="M 815.207045 258.597433 
L 815.207045 245.47121 
" clip-path="url(#p6e5f3fb562)" style="fill: none; stroke: #666666; stroke-linecap: square"/>
   </g>
   <g id="PathCollection_6">
    <g clip-path="url(#p6e5f3fb562)">
     <use xlink:href="#mb9075c66f4" x="592.888385" y="203.467297" style="fill: #ffffff; stroke: #666666"/>
     <use xlink:href="#mb9075c66f4" x="592.888385" y="103.255374" style="fill: #ffffff; stroke: #666666"/>
    </g>
   </g>
   <g id="PathCollection_7">
    <g clip-path="url(#p6e5f3fb562)">
     <use xlink:href="#mb9075c66f4" x="666.994605" y="146.074019" style="fill: #ffffff; stroke: #666666"/>
     <use xlink:href="#mb9075c66f4" x="666.994605" y="96.103846" style="fill: #ffffff; stroke: #666666"/>
    </g>
   </g>
   <g id="PathCollection_8">
    <g clip-path="url(#p6e5f3fb562)">
     <use xlink:href="#mb9075c66f4" x="741.100825" y="224.559779" style="fill: #ffffff; stroke: #666666"/>
     <use xlink:href="#mb9075c66f4" x="741.100825" y="208.536734" style="fill: #ffffff; stroke: #666666"/>
    </g>
   </g>
   <g id="PathCollection_9">
    <g clip-path="url(#p6e5f3fb562)">
     <use xlink:href="#mb9075c66f4" x="815.207045" y="258.597433" style="fill: #ffffff; stroke: #666666"/>
     <use xlink:href="#mb9075c66f4" x="815.207045" y="245.47121" style="fill: #ffffff; stroke: #666666"/>
    </g>
   </g>
  </g>
  <g id="text_38">
   <!-- Benchmark on NVIDIA Jetson Orin -->
   <g style="fill: #111111" transform="translate(320.080938 17.573594) scale(0.13 -0.13)">
    <defs>
     <path id="NotoSansCJKjp-Bold-42" d="M 582 0 
L 2272 0 
C 3315 0 4102 442 4102 1395 
C 4102 2029 3731 2394 3219 2515 
L 3219 2541 
C 3622 2688 3866 3130 3866 3571 
C 3866 4454 3123 4742 2150 4742 
L 582 4742 
L 582 0 
z
M 1530 2810 
L 1530 4013 
L 2093 4013 
C 2662 4013 2944 3846 2944 3430 
C 2944 3053 2688 2810 2086 2810 
L 1530 2810 
z
M 1530 730 
L 1530 2112 
L 2189 2112 
C 2842 2112 3181 1914 3181 1453 
C 3181 960 2829 730 2189 730 
L 1530 730 
z
" transform="scale(0.015625)"/>
     <path id="NotoSansCJKjp-Bold-65" d="M 2067 -90 
C 2509 -90 2963 64 3315 307 
L 2995 883 
C 2733 723 2483 640 2195 640 
C 1658 640 1274 941 1197 1523 
L 3405 1523 
C 3430 1613 3450 1786 3450 1958 
C 3450 2957 2938 3674 1952 3674 
C 1101 3674 282 2950 282 1792 
C 282 608 1062 -90 2067 -90 
z
M 1178 2157 
C 1254 2675 1587 2944 1965 2944 
C 2432 2944 2643 2637 2643 2157 
L 1178 2157 
z
" transform="scale(0.015625)"/>
     <path id="NotoSansCJKjp-Bold-6e" d="M 506 0 
L 1446 0 
L 1446 2464 
C 1709 2726 1901 2867 2189 2867 
C 2541 2867 2694 2675 2694 2118 
L 2694 0 
L 3635 0 
L 3635 2234 
C 3635 3136 3302 3674 2528 3674 
C 2042 3674 1677 3418 1363 3110 
L 1344 3110 
L 1274 3584 
L 506 3584 
L 506 0 
z
" transform="scale(0.015625)"/>
     <path id="NotoSansCJKjp-Bold-63" d="M 2029 -90 
C 2426 -90 2861 45 3200 346 
L 2829 966 
C 2630 800 2394 678 2131 678 
C 1613 678 1242 1114 1242 1792 
C 1242 2464 1613 2906 2163 2906 
C 2362 2906 2528 2822 2707 2675 
L 3155 3270 
C 2893 3507 2554 3674 2112 3674 
C 1139 3674 282 2982 282 1792 
C 282 602 1043 -90 2029 -90 
z
" transform="scale(0.015625)"/>
     <path id="NotoSansCJKjp-Bold-68" d="M 506 0 
L 1446 0 
L 1446 2464 
C 1709 2726 1901 2867 2189 2867 
C 2541 2867 2694 2675 2694 2118 
L 2694 0 
L 3635 0 
L 3635 2234 
C 3635 3136 3302 3674 2528 3674 
C 2042 3674 1683 3418 1402 3149 
L 1446 3821 
L 1446 5107 
L 506 5107 
L 506 0 
z
" transform="scale(0.015625)"/>
     <path id="NotoSansCJKjp-Bold-6d" d="M 506 0 
L 1446 0 
L 1446 2464 
C 1696 2739 1926 2867 2131 2867 
C 2477 2867 2637 2675 2637 2118 
L 2637 0 
L 3571 0 
L 3571 2464 
C 3827 2739 4058 2867 4262 2867 
C 4602 2867 4762 2675 4762 2118 
L 4762 0 
L 5696 0 
L 5696 2234 
C 5696 3136 5350 3674 4589 3674 
C 4128 3674 3776 3392 3443 3046 
C 3277 3443 2976 3674 2464 3674 
C 1997 3674 1664 3418 1363 3104 
L 1344 3104 
L 1274 3584 
L 506 3584 
L 506 0 
z
" transform="scale(0.015625)"/>
     <path id="NotoSansCJKjp-Bold-61" d="M 1382 -90 
C 1798 -90 2157 109 2464 384 
L 2496 384 
L 2560 0 
L 3328 0 
L 3328 2093 
C 3328 3130 2861 3674 1952 3674 
C 1389 3674 877 3456 461 3200 
L 794 2573 
C 1126 2771 1446 2918 1779 2918 
C 2221 2918 2374 2650 2387 2298 
C 947 2144 326 1741 326 979 
C 326 365 742 -90 1382 -90 
z
M 1696 646 
C 1421 646 1222 768 1222 1050 
C 1222 1376 1510 1613 2387 1715 
L 2387 998 
C 2163 774 1965 646 1696 646 
z
" transform="scale(0.015625)"/>
     <path id="NotoSansCJKjp-Bold-72" d="M 506 0 
L 1446 0 
L 1446 2138 
C 1651 2656 1984 2842 2259 2842 
C 2413 2842 2515 2822 2643 2784 
L 2797 3597 
C 2694 3642 2579 3674 2381 3674 
C 2010 3674 1626 3418 1363 2950 
L 1344 2950 
L 1274 3584 
L 506 3584 
L 506 0 
z
" transform="scale(0.015625)"/>
     <path id="NotoSansCJKjp-Bold-6b" d="M 506 0 
L 1434 0 
L 1434 909 
L 1933 1491 
L 2803 0 
L 3827 0 
L 2483 2106 
L 3712 3584 
L 2682 3584 
L 1459 2048 
L 1434 2048 
L 1434 5107 
L 506 5107 
L 506 0 
z
" transform="scale(0.015625)"/>
     <path id="NotoSansCJKjp-Bold-20" transform="scale(0.015625)"/>
     <path id="NotoSansCJKjp-Bold-6f" d="M 2003 -90 
C 2899 -90 3725 602 3725 1792 
C 3725 2982 2899 3674 2003 3674 
C 1101 3674 282 2982 282 1792 
C 282 602 1101 -90 2003 -90 
z
M 2003 678 
C 1510 678 1242 1114 1242 1792 
C 1242 2464 1510 2906 2003 2906 
C 2490 2906 2765 2464 2765 1792 
C 2765 1114 2490 678 2003 678 
z
" transform="scale(0.015625)"/>
     <path id="NotoSansCJKjp-Bold-4e" d="M 582 0 
L 1485 0 
L 1485 1901 
C 1485 2445 1402 3040 1363 3552 
L 1395 3552 
L 1875 2534 
L 3238 0 
L 4205 0 
L 4205 4742 
L 3309 4742 
L 3309 2848 
C 3309 2310 3386 1683 3437 1190 
L 3405 1190 
L 2925 2214 
L 1549 4742 
L 582 4742 
L 582 0 
z
" transform="scale(0.015625)"/>
     <path id="NotoSansCJKjp-Bold-56" d="M 1414 0 
L 2547 0 
L 3994 4742 
L 3034 4742 
L 2419 2432 
C 2272 1907 2170 1434 2016 902 
L 1984 902 
C 1837 1434 1734 1907 1587 2432 
L 966 4742 
L -32 4742 
L 1414 0 
z
" transform="scale(0.015625)"/>
     <path id="NotoSansCJKjp-Bold-49" d="M 582 0 
L 1530 0 
L 1530 4742 
L 582 4742 
L 582 0 
z
" transform="scale(0.015625)"/>
     <path id="NotoSansCJKjp-Bold-44" d="M 582 0 
L 1933 0 
C 3334 0 4224 794 4224 2394 
C 4224 3987 3334 4742 1882 4742 
L 582 4742 
L 582 0 
z
M 1530 768 
L 1530 3981 
L 1818 3981 
C 2707 3981 3258 3546 3258 2394 
C 3258 1242 2707 768 1818 768 
L 1530 768 
z
" transform="scale(0.015625)"/>
     <path id="NotoSansCJKjp-Bold-41" d="M -26 0 
L 934 0 
L 1267 1216 
L 2797 1216 
L 3130 0 
L 4128 0 
L 2611 4742 
L 1491 4742 
L -26 0 
z
M 1472 1952 
L 1613 2470 
C 1754 2963 1888 3501 2016 4019 
L 2042 4019 
C 2182 3514 2310 2963 2458 2470 
L 2598 1952 
L 1472 1952 
z
" transform="scale(0.015625)"/>
     <path id="NotoSansCJKjp-Bold-4a" d="M 1613 -90 
C 2630 -90 3078 640 3078 1530 
L 3078 4742 
L 2131 4742 
L 2131 1606 
C 2131 954 1914 730 1498 730 
C 1229 730 973 877 794 1222 
L 147 742 
C 461 186 928 -90 1613 -90 
z
" transform="scale(0.015625)"/>
     <path id="NotoSansCJKjp-Bold-74" d="M 1818 -90 
C 2131 -90 2381 -13 2579 45 
L 2419 730 
C 2323 691 2182 653 2067 653 
C 1747 653 1574 845 1574 1254 
L 1574 2842 
L 2464 2842 
L 2464 3584 
L 1574 3584 
L 1574 4550 
L 800 4550 
L 691 3584 
L 134 3539 
L 134 2842 
L 640 2842 
L 640 1248 
C 640 454 966 -90 1818 -90 
z
" transform="scale(0.015625)"/>
     <path id="NotoSansCJKjp-Bold-73" d="M 1530 -90 
C 2458 -90 2957 410 2957 1043 
C 2957 1702 2432 1946 1958 2125 
C 1574 2266 1248 2362 1248 2624 
C 1248 2829 1402 2970 1728 2970 
C 1990 2970 2240 2842 2496 2662 
L 2918 3232 
C 2624 3462 2221 3674 1702 3674 
C 883 3674 365 3219 365 2579 
C 365 1978 870 1702 1325 1530 
C 1702 1382 2074 1261 2074 992 
C 2074 768 1914 614 1555 614 
C 1216 614 915 762 595 1005 
L 166 410 
C 525 115 1050 -90 1530 -90 
z
" transform="scale(0.015625)"/>
     <path id="NotoSansCJKjp-Bold-4f" d="M 2464 -90 
C 3718 -90 4582 851 4582 2394 
C 4582 3930 3718 4826 2464 4826 
C 1210 4826 346 3930 346 2394 
C 346 851 1210 -90 2464 -90 
z
M 2464 730 
C 1760 730 1318 1382 1318 2394 
C 1318 3405 1760 4013 2464 4013 
C 3168 4013 3616 3405 3616 2394 
C 3616 1382 3168 730 2464 730 
z
" transform="scale(0.015625)"/>
     <path id="NotoSansCJKjp-Bold-69" d="M 506 0 
L 1446 0 
L 1446 3584 
L 506 3584 
L 506 0 
z
M 979 4166 
C 1299 4166 1523 4365 1523 4678 
C 1523 4986 1299 5190 979 5190 
C 646 5190 435 4986 435 4678 
C 435 4365 646 4166 979 4166 
z
" transform="scale(0.015625)"/>
    </defs>
    <use xlink:href="#NotoSansCJKjp-Bold-42"/>
    <use xlink:href="#NotoSansCJKjp-Bold-65" transform="translate(68.099991 0)"/>
    <use xlink:href="#NotoSansCJKjp-Bold-6e" transform="translate(126.199982 0)"/>
    <use xlink:href="#NotoSansCJKjp-Bold-63" transform="translate(190.299973 0)"/>
    <use xlink:href="#NotoSansCJKjp-Bold-68" transform="translate(242.999969 0)"/>
    <use xlink:href="#NotoSansCJKjp-Bold-6d" transform="translate(306.999954 0)"/>
    <use xlink:href="#NotoSansCJKjp-Bold-61" transform="translate(403.399948 0)"/>
    <use xlink:href="#NotoSansCJKjp-Bold-72" transform="translate(462.499939 0)"/>
    <use xlink:href="#NotoSansCJKjp-Bold-6b" transform="translate(506.09993 0)"/>
    <use xlink:href="#NotoSansCJKjp-Bold-20" transform="translate(566.499924 0)"/>
    <use xlink:href="#NotoSansCJKjp-Bold-6f" transform="translate(589.199921 0)"/>
    <use xlink:href="#NotoSansCJKjp-Bold-6e" transform="translate(651.799911 0)"/>
    <use xlink:href="#NotoSansCJKjp-Bold-20" transform="translate(715.899902 0)"/>
    <use xlink:href="#NotoSansCJKjp-Bold-4e" transform="translate(738.599899 0)"/>
    <use xlink:href="#NotoSansCJKjp-Bold-56" transform="translate(813.499893 0)"/>
    <use xlink:href="#NotoSansCJKjp-Bold-49" transform="translate(875.399887 0)"/>
    <use xlink:href="#NotoSansCJKjp-Bold-44" transform="translate(908.399872 0)"/>
    <use xlink:href="#NotoSansCJKjp-Bold-49" transform="translate(979.799866 0)"/>
    <use xlink:href="#NotoSansCJKjp-Bold-41" transform="translate(1012.79985 0)"/>
    <use xlink:href="#NotoSansCJKjp-Bold-20" transform="translate(1076.899841 0)"/>
    <use xlink:href="#NotoSansCJKjp-Bold-4a" transform="translate(1099.599838 0)"/>
    <use xlink:href="#NotoSansCJKjp-Bold-65" transform="translate(1156.399826 0)"/>
    <use xlink:href="#NotoSansCJKjp-Bold-74" transform="translate(1214.499817 0)"/>
    <use xlink:href="#NotoSansCJKjp-Bold-73" transform="translate(1256.599808 0)"/>
    <use xlink:href="#NotoSansCJKjp-Bold-6f" transform="translate(1306.099792 0)"/>
    <use xlink:href="#NotoSansCJKjp-Bold-6e" transform="translate(1368.699783 0)"/>
    <use xlink:href="#NotoSansCJKjp-Bold-20" transform="translate(1432.799774 0)"/>
    <use xlink:href="#NotoSansCJKjp-Bold-4f" transform="translate(1455.499771 0)"/>
    <use xlink:href="#NotoSansCJKjp-Bold-72" transform="translate(1532.499756 0)"/>
    <use xlink:href="#NotoSansCJKjp-Bold-69" transform="translate(1576.099747 0)"/>
    <use xlink:href="#NotoSansCJKjp-Bold-6e" transform="translate(1606.499741 0)"/>
   </g>
  </g>
 </g>
 <defs>
  <clipPath id="p02341b449c">
   <rect x="33.7225" y="44.64" width="407.584211" height="223.01"/>
  </clipPath>
  <clipPath id="p6e5f3fb562">
   <rect x="483.581711" y="44.64" width="366.825789" height="223.01"/>
  </clipPath>
 </defs>
</svg>
